<?xml version="1.0" encoding="UTF-8"?>
<svg version="1.1" xmlns="http://www.w3.org/2000/svg" width="151" height="129">
<path d="M0 0 C49.83 0 99.66 0 151 0 C151 42.57 151 85.14 151 129 C101.17 129 51.34 129 0 129 C0 86.43 0 43.86 0 0 Z " fill="#1985DE" transform="translate(0,0)"/>
<path d="M0 0 C31.68 0 63.36 0 96 0 C96.185625 15.819375 96.37125 31.63875 96.5625 47.9375 C96.62381104 52.940271 96.68512207 57.94304199 96.74829102 63.09741211 C96.81628418 69.18664551 96.81628418 69.18664551 96.8467865 72.03346252 C96.86914076 74.03010689 96.89350138 76.02672939 96.91941833 78.02333069 C96.95819479 81.04018021 96.99068817 84.05703695 97.02172852 87.07397461 C97.04117822 88.41762164 97.04117822 88.41762164 97.06102085 89.78841305 C97.07901994 91.85896371 97.04524898 93.92986558 97 96 C92.7503931 100.2496069 77.74823818 98.11975428 71.99609375 98.1328125 C68.82753724 98.02750368 65.74174227 97.8060445 62.58911133 97.51147461 C55.91757929 96.94604508 49.27078112 96.7796662 42.578125 96.68359375 C41.48935059 96.66494263 40.40057617 96.6462915 39.27880859 96.6270752 C35.26927652 96.55954123 31.25963056 96.49890938 27.25 96.4375 C18.2575 96.293125 9.265 96.14875 0 96 C0 64.32 0 32.64 0 0 Z " fill="#55647A" transform="translate(30,16)"/>
<path d="M0 0 C12.54 0 25.08 0 38 0 C35.06457432 2.20156926 33.36496848 3.36085838 30.1875 4.6875 C25.33350356 7.03268929 22.09066212 10.63723928 19 15 C18.67 15.99 18.34 16.98 18 18 C17.34 18 16.68 18 16 18 C15.11690938 22.56581989 14.83586485 26.99833281 14.80712891 31.63500977 C14.79895142 32.37578262 14.79077393 33.11655548 14.78234863 33.879776 C14.75766004 36.31697824 14.74101774 38.75412272 14.7265625 41.19140625 C14.72123882 42.03021772 14.71591515 42.8690292 14.71043015 43.7332592 C14.68376515 48.17673704 14.66437259 52.62018748 14.64990234 57.0637207 C14.63659566 60.71729751 14.60879421 64.37031151 14.56787109 68.02368164 C14.51820647 72.4592118 14.49374042 76.8942342 14.48667526 81.33003044 C14.48001805 83.00794977 14.46494295 84.68586024 14.44078445 86.36361885 C14.28987818 97.48132256 14.49289701 108.76830144 22.28311157 117.58351135 C25.92886822 121.04360005 29.25288303 123.30340714 34 125 C34 125.66 34 126.32 34 127 C44.58782912 127.04637466 55.17563401 127.08189532 65.76354408 127.10362434 C70.68012713 127.11405405 75.59664059 127.12819849 80.51318359 127.15087891 C85.2594 127.17263616 90.00554955 127.18457474 94.75181198 127.18975449 C96.56107002 127.19344506 98.37032447 127.20065181 100.17955399 127.21146011 C102.71695059 127.22601331 105.25407217 127.22797634 107.79150391 127.22705078 C108.90928726 127.23783661 108.90928726 127.23783661 110.0496521 127.24884033 C119.9200044 127.20997395 127.13730697 122.58748245 134.375 116.25 C141.8069708 107.98419283 140.44189802 95.65600566 140.3984375 85.27734375 C140.40046257 83.56441626 140.4033776 81.85148962 140.40713501 80.13856506 C140.4115368 76.56389079 140.40519616 72.98944272 140.39111328 69.41479492 C140.3740096 64.85330449 140.38388363 60.29234329 140.40183067 55.73087215 C140.4127157 52.198777 140.40920084 48.66680556 140.4014473 45.1347065 C140.39945899 43.45353697 140.40185595 41.77235588 140.40888596 40.09119987 C140.4467215 28.50456788 140.3564032 18.68046288 131.9609375 9.7890625 C127.23671221 5.47891273 122.17833227 2.69904138 116 1 C116 0.67 116 0.34 116 0 C127.55 0 139.1 0 151 0 C151 42.57 151 85.14 151 129 C101.17 129 51.34 129 0 129 C0 86.43 0 43.86 0 0 Z " fill="#F7FAFD" transform="translate(0,0)"/>
<path d="M0 0 C0.33 0 0.66 0 1 0 C1.15356539 12.49950934 1.30174717 24.99906961 1.4429636 37.49872494 C1.50869986 43.30216414 1.57632441 49.10556879 1.64819336 54.90893555 C1.71742013 60.5044628 1.78177964 66.1000264 1.84269524 71.6956501 C1.86686033 73.83560804 1.89281024 75.97554656 1.92053413 78.11546135 C1.95892312 81.1016015 1.99109246 84.08774632 2.02172852 87.07397461 C2.03467453 87.96805023 2.04762054 88.86212585 2.06095886 89.78329468 C2.07898757 91.85555098 2.04528625 93.92816015 2 96 C-2.2496069 100.2496069 -17.25176182 98.11975428 -23.00390625 98.1328125 C-26.18154792 98.02720173 -29.28610853 97.81356051 -32.44921875 97.52734375 C-40.03997802 96.86185253 -47.63671505 96.65433967 -55.25 96.4375 C-56.68881084 96.39417014 -58.12761304 96.35055206 -59.56640625 96.30664062 C-63.04417776 96.20111491 -66.52204888 96.09945226 -70 96 C-69.67 94.35 -69.34 92.7 -69 91 C-64.54459632 90.39587747 -60.52021205 90 -56 90 C-55.67 86.37 -55.34 82.74 -55 79 C-55.9075 78.9175 -56.815 78.835 -57.75 78.75 C-61.52571704 77.87868068 -62.81907617 77.18750407 -65 74 C-65.33094958 70.22717474 -65.19754817 67.59264452 -64 64 C-63.34 64 -62.68 64 -62 64 C-61.01 67.465 -61.01 67.465 -60 71 C-57.03 70.01 -57.03 70.01 -54 69 C-54 64.71 -54 60.42 -54 56 C-52.68 56.99 -51.36 57.98 -50 59 C-49.75 61.6875 -49.75 61.6875 -50 64 C-47.43284083 61.85922021 -46.11901111 60.69640696 -45.54589844 57.34277344 C-45.5668457 56.35825195 -45.58779297 55.37373047 -45.609375 54.359375 C-45.62226562 53.28945312 -45.63515625 52.21953125 -45.6484375 51.1171875 C-45.68195313 50.00601563 -45.71546875 48.89484375 -45.75 47.75 C-45.76804688 46.62335937 -45.78609375 45.49671875 -45.8046875 44.3359375 C-45.85179778 41.55643104 -45.91756639 38.7786466 -46 36 C-50.51160622 40.83687952 -50.51160622 40.83687952 -51.6875 47.1875 C-51.79478224 50.86332821 -51.86766833 51.8015025 -54 55 C-54 52.03 -54 49.06 -54 46 C-54.94875 46.53625 -55.8975 47.0725 -56.875 47.625 C-57.50921875 47.98335937 -58.1434375 48.34171875 -58.796875 48.7109375 C-60.38895524 49.64247381 -61.95962199 50.61093946 -63.515625 51.6015625 C-64.37671875 52.14554688 -65.2378125 52.68953125 -66.125 53.25 C-67.33542969 54.03117187 -67.33542969 54.03117187 -68.5703125 54.828125 C-71.3151487 56.15200098 -72.9904675 56.38505803 -76 56 C-76.66 55.34 -77.32 54.68 -78 54 C-78 52.68 -78 51.36 -78 50 C-77.26136719 49.68289062 -76.52273437 49.36578125 -75.76171875 49.0390625 C-65.34741339 44.24874669 -55.6639565 37.1951217 -50 27 C-49.70712504 24.9292713 -49.70712504 24.9292713 -49.625 22.8125 C-49 19 -49 19 -47.5703125 17.5703125 C-44.51899598 15.67142454 -42.69151837 14.94114737 -39.0625 15.25 C-38.381875 15.4975 -37.70125 15.745 -37 16 C-36.01751476 20.0527516 -35.91840426 23.83861737 -36 28 C-37.98 28 -39.96 28 -42 28 C-42.33 29.32 -42.66 30.64 -43 32 C-40.03 32.33 -37.06 32.66 -34 33 C-34 41.91 -34 50.82 -34 60 C-25.06675285 60.74530321 -25.06675285 60.74530321 -16.125 61.375 C-11.80479903 61.75418311 -8.81006098 62.86264872 -5 65 C-3.68 65 -2.36 65 -1 65 C-0.67 43.55 -0.34 22.1 0 0 Z " fill="#5170B6" transform="translate(125,16)"/>
<path d="M0 0 C0.8765625 0.10957031 1.753125 0.21914063 2.65625 0.33203125 C6.26814952 0.86560732 9.59743796 1.53247932 13.0625 2.6875 C14.15509636 5.04078446 14.10608146 6.45714084 13.625 9 C9.37043555 16.31785086 1.72838454 20.59549824 -5.9375 23.6875 C-6.5975 23.6875 -7.2575 23.6875 -7.9375 23.6875 C-7.2775 25.3375 -6.6175 26.9875 -5.9375 28.6875 C0.44312432 28.54570835 4.32492194 25.86138698 9.51171875 22.28125 C11.79913273 20.85205413 13.43369663 20.13076427 16.0625 19.6875 C16.5575 22.6575 16.5575 22.6575 17.0625 25.6875 C17.06507812 25.04683594 17.06765625 24.40617187 17.0703125 23.74609375 C17.34393952 17.62596949 18.43167123 14.3071627 22.6875 9.8671875 C24.0625 8.6875 24.0625 8.6875 25.0625 8.6875 C25.1496142 12.77069884 25.20293048 16.85365864 25.25 20.9375 C25.27513672 22.09636719 25.30027344 23.25523438 25.32617188 24.44921875 C25.33583984 25.56425781 25.34550781 26.67929688 25.35546875 27.828125 C25.3711792 28.85454102 25.38688965 29.88095703 25.40307617 30.93847656 C25.01455117 34.07452783 24.26282917 35.45005846 22.0625 37.6875 C21.4025 37.6875 20.7425 37.6875 20.0625 37.6875 C19.753125 36.718125 19.44375 35.74875 19.125 34.75 C18.36726658 31.84684208 18.36726658 31.84684208 17.0625 30.6875 C17.05992188 31.51894531 17.05734375 32.35039063 17.0546875 33.20703125 C16.93859052 36.46935645 16.7532092 39.494599 16.0625 42.6875 C13 44.9375 13 44.9375 10.0625 45.6875 C8.80585022 42.78149739 8.0625 40.89145416 8.0625 37.6875 C7.4025 37.6875 6.7425 37.6875 6.0625 37.6875 C5.98159029 39.31168745 5.92335005 40.93701745 5.875 42.5625 C5.84019531 43.46742187 5.80539063 44.37234375 5.76953125 45.3046875 C5.86621094 46.09101562 5.96289062 46.87734375 6.0625 47.6875 C7.0525 48.3475 8.0425 49.0075 9.0625 49.6875 C9.0625 50.3475 9.0625 51.0075 9.0625 51.6875 C12.0325 52.1825 12.0325 52.1825 15.0625 52.6875 C15.0625 56.6475 15.0625 60.6075 15.0625 64.6875 C10.91210938 64.63867188 10.91210938 64.63867188 6.76171875 64.58984375 C3.96286151 64.56420138 3.96286151 64.56420138 1.0625 65.6875 C0.7325 67.0075 0.4025 68.3275 0.0625 69.6875 C-8.1875 69.6875 -16.4375 69.6875 -24.9375 69.6875 C-24.96005338 60.96905659 -24.97841645 52.25063241 -24.98931217 43.53216648 C-24.99454041 39.48424258 -25.00163699 35.43633959 -25.01293945 31.38842773 C-25.02377043 27.48514029 -25.02977728 23.58187301 -25.03237724 19.6785717 C-25.03423111 18.18616353 -25.037851 16.69375652 -25.04323006 15.20135689 C-25.05044331 13.11801861 -25.05149083 11.03476469 -25.05102539 8.95141602 C-25.053246 7.76338882 -25.05546661 6.57536163 -25.05775452 5.35133362 C-24.9375 2.6875 -24.9375 2.6875 -23.9375 1.6875 C-21.92155418 1.45322222 -19.899026 1.27413876 -17.875 1.125 C-16.21791016 0.99931641 -16.21791016 0.99931641 -14.52734375 0.87109375 C-13.24537109 0.78021484 -13.24537109 0.78021484 -11.9375 0.6875 C-12.5975 1.3475 -13.2575 2.0075 -13.9375 2.6875 C-11.4625 3.6775 -11.4625 3.6775 -8.9375 4.6875 C-8.9375 3.6975 -8.9375 2.7075 -8.9375 1.6875 C-5.71773639 -0.2532813 -3.70470403 -0.47379112 0 0 Z " fill="#343855" transform="translate(54.9375,42.3125)"/>
<path d="M0 0 C0.98248524 4.0527516 1.08159574 7.83861737 1 12 C-0.98 12 -2.96 12 -5 12 C-5.59070014 13.94603274 -5.59070014 13.94603274 -6 16 C-4.4 17.8 -4.4 17.8 2 18 C2 23.61 2 29.22 2 35 C1.67 35 1.34 35 1 35 C0.67 29.72 0.34 24.44 0 19 C-0.99 19 -1.98 19 -3 19 C-3 31.21 -3 43.42 -3 56 C-0.03 55.505 -0.03 55.505 3 55 C3 57.64 3 60.28 3 63 C1.02 63 -0.96 63 -3 63 C-3.33 68.61 -3.66 74.22 -4 80 C-13.57 80 -23.14 80 -33 80 C-32.67 78.35 -32.34 76.7 -32 75 C-27.54459632 74.39587747 -23.52021205 74 -19 74 C-18.67 70.37 -18.34 66.74 -18 63 C-18.9075 62.9175 -19.815 62.835 -20.75 62.75 C-24.52571704 61.87868068 -25.81907617 61.18750407 -28 58 C-28.33094958 54.22717474 -28.19754817 51.59264452 -27 48 C-26.34 48 -25.68 48 -25 48 C-24.34 50.31 -23.68 52.62 -23 55 C-21.02 54.34 -19.04 53.68 -17 53 C-17 48.71 -17 44.42 -17 40 C-15.68 40.99 -14.36 41.98 -13 43 C-12.75 45.6875 -12.75 45.6875 -13 48 C-10.43284083 45.85922021 -9.11901111 44.69640696 -8.54589844 41.34277344 C-8.5668457 40.35825195 -8.58779297 39.37373047 -8.609375 38.359375 C-8.62226562 37.28945312 -8.63515625 36.21953125 -8.6484375 35.1171875 C-8.68195313 34.00601563 -8.71546875 32.89484375 -8.75 31.75 C-8.76804688 30.62335937 -8.78609375 29.49671875 -8.8046875 28.3359375 C-8.85179778 25.55643104 -8.91756639 22.7786466 -9 20 C-13.51160622 24.83687952 -13.51160622 24.83687952 -14.6875 31.1875 C-14.79478224 34.86332821 -14.86766833 35.8015025 -17 39 C-17 36.03 -17 33.06 -17 30 C-18.423125 30.804375 -18.423125 30.804375 -19.875 31.625 C-20.50921875 31.98335937 -21.1434375 32.34171875 -21.796875 32.7109375 C-23.38895524 33.64247381 -24.95962199 34.61093946 -26.515625 35.6015625 C-27.37671875 36.14554688 -28.2378125 36.68953125 -29.125 37.25 C-30.33542969 38.03117187 -30.33542969 38.03117187 -31.5703125 38.828125 C-34.3151487 40.15200098 -35.9904675 40.38505803 -39 40 C-39.66 39.34 -40.32 38.68 -41 38 C-41 36.68 -41 35.36 -41 34 C-40.26136719 33.68289062 -39.52273437 33.36578125 -38.76171875 33.0390625 C-28.34741339 28.24874669 -18.6639565 21.1951217 -13 11 C-12.70712504 8.9292713 -12.70712504 8.9292713 -12.625 6.8125 C-12 3 -12 3 -10.5703125 1.5703125 C-6.85967505 -0.73888248 -4.27356647 -1.55402417 0 0 Z " fill="#5C69AB" transform="translate(88,32)"/>
<path d="M0 0 C10.56 0 21.12 0 32 0 C32.495 1.485 32.495 1.485 33 3 C35.64 3.33 38.28 3.66 41 4 C41 14.89 41 25.78 41 37 C33 36 33 36 30 34 C28.05956108 33.56351933 28.05956108 33.56351933 25.9453125 33.40234375 C25.16542969 33.32306641 24.38554688 33.24378906 23.58203125 33.16210938 C22.77121094 33.08798828 21.96039063 33.01386719 21.125 32.9375 C19.52324161 32.78195203 17.92167139 32.62445201 16.3203125 32.46484375 C15.61148926 32.399021 14.90266602 32.33319824 14.17236328 32.26538086 C11.7625681 31.97099478 9.38056554 31.47611311 7 31 C7 22.09 7 13.18 7 4 C4.69 3.67 2.38 3.34 0 3 C0 2.01 0 1.02 0 0 Z " fill="#425264" transform="translate(84,45)"/>
<path d="M0 0 C0.0871142 4.08319884 0.14043048 8.16615864 0.1875 12.25 C0.21263672 13.40886719 0.23777344 14.56773438 0.26367188 15.76171875 C0.27333984 16.87675781 0.28300781 17.99179688 0.29296875 19.140625 C0.3086792 20.16704102 0.32438965 21.19345703 0.34057617 22.25097656 C-0.04794883 25.38702783 -0.79967083 26.76255846 -3 29 C-3.66 29 -4.32 29 -5 29 C-5.309375 28.030625 -5.61875 27.06125 -5.9375 26.0625 C-6.69523342 23.15934208 -6.69523342 23.15934208 -8 22 C-8.00257812 22.83144531 -8.00515625 23.66289063 -8.0078125 24.51953125 C-8.12390948 27.78185645 -8.3092908 30.807099 -9 34 C-12.0625 36.25 -12.0625 36.25 -15 37 C-16.25664978 34.09399739 -17 32.20395416 -17 29 C-17.66 29 -18.32 29 -19 29 C-19.08090971 30.62418745 -19.13914995 32.24951745 -19.1875 33.875 C-19.22230469 34.77992187 -19.25710937 35.68484375 -19.29296875 36.6171875 C-19.19628906 37.40351562 -19.09960938 38.18984375 -19 39 C-18.01 39.66 -17.02 40.32 -16 41 C-16 41.66 -16 42.32 -16 43 C-14.02 43.33 -12.04 43.66 -10 44 C-10 47.96 -10 51.92 -10 56 C-14.15039062 55.95117188 -14.15039062 55.95117188 -18.30078125 55.90234375 C-21.09963849 55.87670138 -21.09963849 55.87670138 -24 57 C-24.73323796 59.01508358 -24.73323796 59.01508358 -25 61 C-26.98 61 -28.96 61 -31 61 C-30.67 59.35 -30.34 57.7 -30 56 C-23.25 54 -23.25 54 -21 54 C-21.020625 52.948125 -21.04125 51.89625 -21.0625 50.8125 C-21.01103198 47.67295096 -20.73482813 45.03116604 -20 42 C-21.546875 42.3403125 -21.546875 42.3403125 -23.125 42.6875 C-27.4837817 43.03901465 -29.32730775 42.23944649 -33 40 C-33 37.36 -33 34.72 -33 32 C-35.31 32.66 -37.62 33.32 -40 34 C-40 33.01 -40 32.02 -40 31 C-34.74285714 27 -34.74285714 27 -32 27 C-32 26.34 -32 25.68 -32 25 C-28.37 24.67 -24.74 24.34 -21 24 C-21.33 22.68 -21.66 21.36 -22 20 C-22.66 19.67 -23.32 19.34 -24 19 C-22.25447936 17.84735447 -20.50339804 16.70312673 -18.75 15.5625 C-17.77546875 14.92441406 -16.8009375 14.28632812 -15.796875 13.62890625 C-13.41618385 12.2423864 -11.68219693 11.453419 -9 11 C-8.505 13.97 -8.505 13.97 -8 17 C-7.99742188 16.35933594 -7.99484375 15.71867187 -7.9921875 15.05859375 C-7.71856048 8.93846949 -6.63082877 5.6196627 -2.375 1.1796875 C-1 0 -1 0 0 0 Z " fill="#6257A8" transform="translate(80,51)"/>
<path d="M0 0 C-4.455 2.97 -4.455 2.97 -9 6 C-5.79604584 6 -3.90600261 5.25664978 -1 4 C0.4783226 6.95664519 0.06032783 9.74229737 0 13 C4.1205746 14.99785435 7.45194365 15.17835515 12 15 C12.08121924 16.60332791 12.13929134 18.20784026 12.1875 19.8125 C12.23970703 21.15248047 12.23970703 21.15248047 12.29296875 22.51953125 C12 25 12 25 10.71875 26.75 C8.06837812 28.67754319 5.14785016 29.22788581 2 30 C1.67 31.32 1.34 32.64 1 34 C-5.27 34 -11.54 34 -18 34 C-18.061875 30.0090625 -18.061875 30.0090625 -18.125 25.9375 C-18.14320801 25.1137085 -18.16141602 24.28991699 -18.18017578 23.44116211 C-18.22393537 17.54702811 -17.56835956 12.57210967 -14.4375 7.4375 C-5.25 -1.75 -5.25 -1.75 0 0 Z " fill="#3C3261" transform="translate(48,78)"/>
<path d="M0 0 C0.98248524 4.0527516 1.08159574 7.83861737 1 12 C-0.98 12 -2.96 12 -5 12 C-5.59070014 13.94603274 -5.59070014 13.94603274 -6 16 C-4.4 17.8 -4.4 17.8 2 18 C2 23.61 2 29.22 2 35 C1.67 35 1.34 35 1 35 C0.67 29.72 0.34 24.44 0 19 C-0.99 19 -1.98 19 -3 19 C-3.33 31.54 -3.66 44.08 -4 57 C-6.49092811 58.24546405 -7.41080733 57.7767578 -10 57 C-10 56.01 -10 55.02 -10 54 C-9.34 54 -8.68 54 -8 54 C-7.97056876 50.20835009 -7.9530581 46.41673021 -7.9375 42.625 C-7.92493164 41.03365234 -7.92493164 41.03365234 -7.91210938 39.41015625 C-7.8920576 32.87327796 -8.1941922 26.48825176 -9 20 C-13.55726314 24.44041024 -14.57652454 27.38513033 -14.76171875 33.73046875 C-15 36 -15 36 -17 39 C-17 36.03 -17 33.06 -17 30 C-18.423125 30.804375 -18.423125 30.804375 -19.875 31.625 C-20.50921875 31.98335937 -21.1434375 32.34171875 -21.796875 32.7109375 C-23.38895524 33.64247381 -24.95962199 34.61093946 -26.515625 35.6015625 C-27.37671875 36.14554688 -28.2378125 36.68953125 -29.125 37.25 C-30.33542969 38.03117187 -30.33542969 38.03117187 -31.5703125 38.828125 C-34.3151487 40.15200098 -35.9904675 40.38505803 -39 40 C-39.66 39.34 -40.32 38.68 -41 38 C-41 36.68 -41 35.36 -41 34 C-40.26136719 33.68289062 -39.52273437 33.36578125 -38.76171875 33.0390625 C-28.34741339 28.24874669 -18.6639565 21.1951217 -13 11 C-12.70712504 8.9292713 -12.70712504 8.9292713 -12.625 6.8125 C-12 3 -12 3 -10.5703125 1.5703125 C-6.85967505 -0.73888248 -4.27356647 -1.55402417 0 0 Z " fill="#7EBFD2" transform="translate(88,32)"/>
<path d="M0 0 C2.97 0.99 5.94 1.98 9 3 C9 9.27 9 15.54 9 22 C-2.22 22 -13.44 22 -25 22 C-25.33 20.35 -25.66 18.7 -26 17 C-23.30110437 15.65055218 -21.02356709 16.13938191 -18.08178711 16.31835938 C-10.91113759 16.89511307 -10.91113759 16.89511307 -4.54296875 14.22265625 C-3.07927105 12.19627185 -1.94398526 10.31095845 -1 8 C-1.33 7.34 -1.66 6.68 -2 6 C-1.39421747 3.98072489 -0.73080266 1.97746603 0 0 Z " fill="#4E5E7D" transform="translate(116,90)"/>
<path d="M0 0 C0.33 0 0.66 0 1 0 C1.02901394 3.4374823 1.04680335 6.87493312 1.0625 10.3125 C1.07087891 11.28896484 1.07925781 12.26542969 1.08789062 13.27148438 C1.09272461 14.67817383 1.09272461 14.67817383 1.09765625 16.11328125 C1.10551147 17.40939331 1.10551147 17.40939331 1.11352539 18.73168945 C1 21 1 21 0 24 C-0.66 24 -1.32 24 -2 24 C-2 25.32 -2 26.64 -2 28 C-1.34 28 -0.68 28 0 28 C0 31.96 0 35.92 0 40 C-2.64 39.67 -5.28 39.34 -8 39 C-5 37 -5 37 -2 37 C-2.495 34.525 -2.495 34.525 -3 32 C-3.72445312 32.13019531 -4.44890625 32.26039062 -5.1953125 32.39453125 C-14.0874802 33.66314718 -14.0874802 33.66314718 -17.6875 31 C-20 28 -20 28 -20.4375 24.375 C-20 21 -20 21 -19 18 C-18.34 18 -17.68 18 -17 18 C-16.34 20.31 -15.68 22.62 -15 25 C-13.02 24.34 -11.04 23.68 -9 23 C-9 18.71 -9 14.42 -9 10 C-7.68 10.99 -6.36 11.98 -5 13 C-4.75 15.6875 -4.75 15.6875 -5 18 C-1.98126522 15.60916205 -1.07150347 14.40518636 -0.390625 10.546875 C-0.34421875 9.29390625 -0.2978125 8.0409375 -0.25 6.75 C-0.19328125 5.48671875 -0.1365625 4.2234375 -0.078125 2.921875 C-0.05234375 1.95765625 -0.0265625 0.9934375 0 0 Z " fill="#7179CA" transform="translate(80,62)"/>
<path d="M0 0 C2.64 0 5.28 0 8 0 C8.19235797 5.07163574 8.37106479 10.1434989 8.53710938 15.21606445 C8.59552576 16.9417817 8.65767766 18.6673767 8.72363281 20.39282227 C8.81776434 22.87233218 8.89847386 25.3519707 8.9765625 27.83203125 C9.00875885 28.60400345 9.0409552 29.37597565 9.0741272 30.17134094 C9.18216648 34.03041447 9.19852515 35.70221227 7 39 C3.875 39.6875 3.875 39.6875 1 40 C0.97531916 34.90967159 0.95714918 29.81937785 0.94506836 24.72900391 C0.94003318 22.99657586 0.93320468 21.26415208 0.92456055 19.53173828 C0.91245935 17.04458567 0.90676362 14.55748913 0.90234375 12.0703125 C0.89718246 11.29317902 0.89202118 10.51604553 0.88670349 9.71536255 C0.88612829 4.22774341 0.88612829 4.22774341 2 2 C2.99 2 3.98 2 5 2 C5.33 3.65 5.66 5.3 6 7 C6.33 5.02 6.66 3.04 7 1 C4.69 1 2.38 1 0 1 C0 0.67 0 0.34 0 0 Z " fill="#5D97C4" transform="translate(83,49)"/>
<path d="M0 0 C0 1.32 0 2.64 0 4 C0.66 4 1.32 4 2 4 C3.25664978 6.90600261 4 8.79604584 4 12 C-3.09038772 13.50974035 -9.75002578 14.28307925 -17 14 C-17.69584017 9.97959015 -18.1700097 6.91736581 -17 3 C-3.63106796 0 -3.63106796 0 0 0 Z " fill="#7495B2" transform="translate(111,58)"/>
<path d="M0 0 C0.33 0 0.66 0 1 0 C1 1.65 1 3.3 1 5 C3.16666667 4.16666667 3.16666667 4.16666667 4 2 C4.33 3.65 4.66 5.3 5 7 C8.465 6.505 8.465 6.505 12 6 C12.33 5.01 12.66 4.02 13 3 C13.33 3.99 13.66 4.98 14 6 C14.99 6.66 15.98 7.32 17 8 C17 8.66 17 9.32 17 10 C19.97 10.495 19.97 10.495 23 11 C23 14.96 23 18.92 23 23 C18.84960938 22.95117188 18.84960938 22.95117188 14.69921875 22.90234375 C11.90036151 22.87670138 11.90036151 22.87670138 9 24 C8.26676204 26.01508358 8.26676204 26.01508358 8 28 C6.02 28 4.04 28 2 28 C2.33 26.35 2.66 24.7 3 23 C9.75 21 9.75 21 12 21 C11.979375 19.948125 11.95875 18.89625 11.9375 17.8125 C11.98896802 14.67295096 12.26517187 12.03116604 13 9 C11.453125 9.3403125 11.453125 9.3403125 9.875 9.6875 C5.5162183 10.03901465 3.67269225 9.23944649 0 7 C0 4.69 0 2.38 0 0 Z " fill="#574A9E" transform="translate(47,84)"/>
<path d="M0 0 C2.0625 1.625 2.0625 1.625 4 4 C4.43455671 10.22864612 -0.19997604 14.53521989 -4 19 C-4.68707555 16.50935112 -5 14.62113708 -5 12 C-6.5159375 12.061875 -6.5159375 12.061875 -8.0625 12.125 C-12.05598561 11.99822268 -15.20053187 11.16906712 -19 10 C-19.99 10 -20.98 10 -22 10 C-22 9.01 -22 8.02 -22 7 C-20.68 7 -19.36 7 -18 7 C-18 6.34 -18 5.68 -18 5 C-16.86820313 4.80664062 -15.73640625 4.61328125 -14.5703125 4.4140625 C-13.08846798 4.15145714 -11.60670108 3.88841352 -10.125 3.625 C-9.00544922 3.43550781 -9.00544922 3.43550781 -7.86328125 3.2421875 C-3.49009468 2.54731306 -3.49009468 2.54731306 0 0 Z " fill="#657189" transform="translate(73,33)"/>
<path d="M0 0 C1.45823212 -0.0270043 2.91660675 -0.04639787 4.375 -0.0625 C5.18710938 -0.07410156 5.99921875 -0.08570312 6.8359375 -0.09765625 C9 0 9 0 11 1 C13.79611738 0.99124846 16.57796499 0.86864073 19.37109375 0.7421875 C22 1 22 1 23.84765625 2.2578125 C25 4 25 4 25 8 C19.5767281 11.17305652 13.25632209 10.8094019 7.28125 9.32421875 C5.15374969 8.61392988 3.07135803 7.85923 1 7 C0.67 4.69 0.34 2.38 0 0 Z " fill="#7482AC" transform="translate(91,78)"/>
<path d="M0 0 C3.3 0 6.6 0 10 0 C10 0.33 10 0.66 10 1 C8.35 1 6.7 1 5 1 C5 1.66 5 2.32 5 3 C8.465 2.505 8.465 2.505 12 2 C12.02712066 3.43739513 12.04645067 4.87493863 12.0625 6.3125 C12.07410156 7.11300781 12.08570312 7.91351563 12.09765625 8.73828125 C12 11 12 11 11 14 C8.69 14.33 6.38 14.66 4 15 C3.67 14.34 3.34 13.68 3 13 C2.01 13 1.02 13 0 13 C-0.33 11.02 -0.66 9.04 -1 7 C-3.31 7.66 -5.62 8.32 -8 9 C-8 8.01 -8 7.02 -8 6 C-2.74285714 2 -2.74285714 2 0 2 C0 1.34 0 0.68 0 0 Z " fill="#4C2B9B" transform="translate(48,76)"/>
<path d="M0 0 C6.93 0.495 6.93 0.495 14 1 C14.36992481 10.49473684 14.36992481 10.49473684 12.71875 12.75 C10.06837812 14.67754319 7.14785016 15.22788581 4 16 C3.67 17.32 3.34 18.64 3 20 C1.35 20 -0.3 20 -2 20 C-1.01 19.67 -0.02 19.34 1 19 C1 13.72 1 8.44 1 3 C0.01 3 -0.98 3 -2 3 C-1.34 2.01 -0.68 1.02 0 0 Z " fill="#463884" transform="translate(46,92)"/>
<path d="M0 0 C0.0871142 4.08319884 0.14043048 8.16615864 0.1875 12.25 C0.22520508 13.98830078 0.22520508 13.98830078 0.26367188 15.76171875 C0.27817383 17.43427734 0.27817383 17.43427734 0.29296875 19.140625 C0.31653442 20.68024902 0.31653442 20.68024902 0.34057617 22.25097656 C-0.04794883 25.38702783 -0.79967083 26.76255846 -3 29 C-3.66 29 -4.32 29 -5 29 C-5.433125 27.6078125 -5.433125 27.6078125 -5.875 26.1875 C-6.8875 22.90208333 -6.8875 22.90208333 -9 20 C-8.828125 17.4765625 -8.828125 17.4765625 -8.25 14.625 C-8.06953125 13.68914062 -7.8890625 12.75328125 -7.703125 11.7890625 C-4.73109244 0 -4.73109244 0 0 0 Z " fill="#515EAA" transform="translate(80,51)"/>
<path d="M0 0 C2.87418132 0.23575309 5.74790492 0.47502604 8.62109375 0.72265625 C10.75744373 0.89800983 12.89553255 1.05416992 15.03515625 1.18359375 C20.44887404 1.54847982 24.21031652 2.26303801 29 5 C31.475 5.495 31.475 5.495 34 6 C34 9.63 34 13.26 34 17 C32.88625 16.835 31.7725 16.67 30.625 16.5 C27.27967967 15.9544542 27.27967967 15.9544542 25 16 C24.34 17.32 23.68 18.64 23 20 C23.061875 19.05125 23.12375 18.1025 23.1875 17.125 C23.125625 16.09375 23.06375 15.0625 23 14 C22.01 13.34 21.02 12.68 20 12 C21.65 11.34 23.3 10.68 25 10 C25 8.68 25 7.36 25 6 C24.01 5.67 23.02 5.34 22 5 C22 4.34 22 3.68 22 3 C21.01 3.495 21.01 3.495 20 4 C18.50243129 4.09499503 17.00057068 4.12987198 15.5 4.125 C14.7059375 4.12757812 13.911875 4.13015625 13.09375 4.1328125 C11 4 11 4 9 3 C7.46331135 2.77532169 5.92031946 2.59203195 4.375 2.4375 C3.55773437 2.35371094 2.74046875 2.26992187 1.8984375 2.18359375 C1.27195312 2.12300781 0.64546875 2.06242187 0 2 C0 1.34 0 0.68 0 0 Z " fill="#607595" transform="translate(91,76)"/>
<path d="M0 0 C0.33 0 0.66 0 1 0 C1 3.3 1 6.6 1 10 C2.98 10.495 2.98 10.495 5 11 C4.34 11 3.68 11 3 11 C3 14.63 3 18.26 3 22 C5.64 22 8.28 22 11 22 C11 22.66 11 23.32 11 24 C21.88553071 26.60146009 21.88553071 26.60146009 33 27 C33.495 29.475 33.495 29.475 34 32 C32.741875 31.87625 31.48375 31.7525 30.1875 31.625 C29.47980469 31.55539063 28.77210937 31.48578125 28.04296875 31.4140625 C26 31 26 31 23 29 C21.05956108 28.56351933 21.05956108 28.56351933 18.9453125 28.40234375 C18.16542969 28.32306641 17.38554688 28.24378906 16.58203125 28.16210938 C15.36580078 28.05092773 15.36580078 28.05092773 14.125 27.9375 C12.52324161 27.78195203 10.92167139 27.62445201 9.3203125 27.46484375 C8.25707764 27.36610962 8.25707764 27.36610962 7.17236328 27.26538086 C4.7625681 26.97099478 2.38056554 26.47611311 0 26 C0 17.42 0 8.84 0 0 Z " fill="#47597A" transform="translate(91,50)"/>
<path d="M0 0 C1.98 0 3.96 0 6 0 C6 5.61 6 11.22 6 17 C5.67 17 5.34 17 5 17 C4.67 11.72 4.34 6.44 4 1 C3.01 1 2.02 1 1 1 C0.67 13.54 0.34 26.08 0 39 C-2.49092811 40.24546405 -3.41080733 39.7767578 -6 39 C-6 38.01 -6 37.02 -6 36 C-5.34 36 -4.68 36 -4 36 C-4 24.45 -4 12.9 -4 1 C-3.67 1 -3.34 1 -3 1 C-2.67 4.3 -2.34 7.6 -2 11 C-1.855625 9.55625 -1.71125 8.1125 -1.5625 6.625 C-1.125 2.25 -1.125 2.25 0 0 Z " fill="#5FAFCF" transform="translate(84,50)"/>
<path d="M0 0 C1.32 0 2.64 0 4 0 C3.88316357 5.95865788 3.88316357 5.95865788 1.69140625 8.54296875 C-3.4370767 12.58179713 -8.65690841 13 -15 13 C-14.67 11.68 -14.34 10.36 -14 9 C-12.68 9 -11.36 9 -10 9 C-9.67 6.69 -9.34 4.38 -9 2 C-6.94921875 1.77213542 -4.8984375 1.54427083 -2.84765625 1.31640625 C-0.98859771 1.18113386 -0.98859771 1.18113386 0 0 Z " fill="#6784AE" transform="translate(109,92)"/>
<path d="M0 0 C0 3.81148459 -1.48122852 5.26167631 -3.9609375 8.0234375 C-9.7177489 13.60379492 -15.9870562 18.57547666 -24 20 C-23.67 18.68 -23.34 17.36 -23 16 C-24.98491642 16.26676204 -24.98491642 16.26676204 -27 17 C-27.33 17.99 -27.66 18.98 -28 20 C-28 18.68 -28 17.36 -28 16 C-27.19175781 15.60167969 -26.38351563 15.20335938 -25.55078125 14.79296875 C-24.48214844 14.26316406 -23.41351563 13.73335937 -22.3125 13.1875 C-21.25675781 12.66542969 -20.20101562 12.14335938 -19.11328125 11.60546875 C-16.33223304 10.1713272 -13.66095433 8.64396622 -11 7 C-11 7.66 -11 8.32 -11 9 C-6.50907623 6.62245212 -3.47764287 3.6393937 0 0 Z " fill="#5E51A2" transform="translate(75,50)"/>
<path d="M0 0 C0 8.91 0 17.82 0 27 C-4 26 -4 26 -5.25 23.9375 C-5.4975 23.298125 -5.745 22.65875 -6 22 C-4.35 22 -2.7 22 -1 22 C-1 15.4 -1 8.8 -1 2 C-17.87427672 1.15719035 -17.87427672 1.15719035 -34 5 C-34.33 5.99 -34.66 6.98 -35 8 C-35.625 6.1875 -35.625 6.1875 -36 4 C-34 1 -34 1 -31.4453125 0.48828125 C-20.95092008 -0.06730423 -10.50983099 -0.07198514 0 0 Z " fill="#687585" transform="translate(125,16)"/>
<path d="M0 0 C0 2.64 0 5.28 0 8 C-1.98 8 -3.96 8 -6 8 C-5.979375 9.11375 -5.95875 10.2275 -5.9375 11.375 C-6 15 -6 15 -7 17 C-8.32 16.67 -9.64 16.34 -11 16 C-11 11.71 -11 7.42 -11 3 C-11.66 2.67 -12.32 2.34 -13 2 C-11.4221875 1.7834375 -11.4221875 1.7834375 -9.8125 1.5625 C-6.65271395 1.09630206 -3.19738021 0 0 0 Z " fill="#6A7CB5" transform="translate(91,87)"/>
<path d="M0 0 C0.33 0 0.66 0 1 0 C1 2.31 1 4.62 1 7 C-10.22 7 -21.44 7 -33 7 C-33 5.68 -33 4.36 -33 3 C-21.77929357 2.76864523 -11.08713858 3.16849628 0 5 C0 3.35 0 1.7 0 0 Z " fill="#415173" transform="translate(124,105)"/>
<path d="M0 0 C0.66 0 1.32 0 2 0 C2.66 2.31 3.32 4.62 4 7 C5.98 6.34 7.96 5.68 10 5 C10 4.01 10 3.02 10 2 C11.32 1.67 12.64 1.34 14 1 C14.125 8.625 14.125 8.625 13 12 C11.22950311 12.05410687 9.45853151 12.09284119 7.6875 12.125 C6.20830078 12.15980469 6.20830078 12.15980469 4.69921875 12.1953125 C2 12 2 12 -1 10 C-1.27028374 6.28359861 -1.180933 3.542799 0 0 Z " fill="#7B58C6" transform="translate(61,80)"/>
<path d="M0 0 C0.99 0.495 0.99 0.495 2 1 C0.94583321 1.82328299 -0.118822 2.63314321 -1.1875 3.4375 C-1.77917969 3.88996094 -2.37085937 4.34242187 -2.98046875 4.80859375 C-7.47830981 7.46205898 -12.58334007 7.14852935 -17.66430664 7.14526367 C-18.79693184 7.15030159 -18.79693184 7.15030159 -19.95243835 7.15544128 C-22.43836122 7.16490942 -24.9242165 7.166892 -27.41015625 7.16796875 C-29.14220711 7.17118312 -30.87425769 7.17454732 -32.60630798 7.17805481 C-36.23176707 7.18403493 -39.85720235 7.18589575 -43.48266602 7.18530273 C-48.12874808 7.18520092 -52.77467797 7.19887749 -57.42072392 7.21607494 C-60.99548546 7.22718799 -64.57021005 7.22922219 -68.14498711 7.22869301 C-69.8582048 7.22987323 -71.57142343 7.2342974 -73.2846241 7.24202538 C-75.67822115 7.25181558 -78.07148556 7.24895165 -80.46508789 7.24291992 C-81.17220917 7.24853943 -81.87933044 7.25415894 -82.60787964 7.25994873 C-86.24129178 7.23666605 -88.90911993 6.99072429 -92 5 C-90.54873215 5.00999275 -90.54873215 5.00999275 -89.06814575 5.02018738 C-79.91785551 5.08119451 -70.76760692 5.12606634 -61.61715889 5.15543652 C-56.91363118 5.171044 -52.21026863 5.1921917 -47.50683594 5.22631836 C-42.96159127 5.25908815 -38.41650473 5.27688994 -33.87115097 5.28463173 C-32.14333485 5.29014377 -30.41552666 5.30090692 -28.68777847 5.31719017 C-13.65510853 5.61177182 -13.65510853 5.61177182 0 0 Z " fill="#6586F2" transform="translate(126,121)"/>
<path d="M0 0 C1.1858519 0.00212242 1.1858519 0.00212242 2.3956604 0.00428772 C4.90183416 0.00985121 7.40791608 0.02239681 9.9140625 0.03515625 C11.62109245 0.04017597 13.32812382 0.04473805 15.03515625 0.04882812 C19.20315998 0.05980866 23.37109571 0.07704786 27.5390625 0.09765625 C27.5390625 2.07765625 27.5390625 4.05765625 27.5390625 6.09765625 C21.484375 6.29296875 21.484375 6.29296875 19.5390625 6.09765625 C18.8790625 5.43765625 18.2190625 4.77765625 17.5390625 4.09765625 C17.8690625 3.43765625 18.1990625 2.77765625 18.5390625 2.09765625 C7.9790625 2.09765625 -2.5809375 2.09765625 -13.4609375 2.09765625 C-13.4609375 3.08765625 -13.4609375 4.07765625 -13.4609375 5.09765625 C-12.1409375 5.42765625 -10.8209375 5.75765625 -9.4609375 6.09765625 C-11.7709375 6.09765625 -14.0809375 6.09765625 -16.4609375 6.09765625 C-15.8359375 3.66015625 -15.8359375 3.66015625 -14.4609375 1.09765625 C-9.69705299 -0.12083206 -4.88617822 -0.03333688 0 0 Z " fill="#627686" transform="translate(97.4609375,42.90234375)"/>
<path d="M0 0 C0.99 0.33 1.98 0.66 3 1 C2.02180976 2.31322788 1.0424189 3.62556152 0.0625 4.9375 C-0.75541016 6.03384766 -0.75541016 6.03384766 -1.58984375 7.15234375 C-3 9 -3 9 -4 10 C-5.34267413 10.08631874 -6.68974322 10.10706473 -8.03515625 10.09765625 C-8.84404297 10.09443359 -9.65292969 10.09121094 -10.48632812 10.08789062 C-11.33646484 10.07951172 -12.18660156 10.07113281 -13.0625 10.0625 C-13.91650391 10.05798828 -14.77050781 10.05347656 -15.65039062 10.04882812 C-17.76695663 10.03700373 -19.88348685 10.01906769 -22 10 C-22 11.65 -22 13.3 -22 15 C-24.31 15 -26.62 15 -29 15 C-29 12.36 -29 9.72 -29 7 C-27.35425434 6.97311849 -25.70838587 6.95365877 -24.0625 6.9375 C-23.14597656 6.92589844 -22.22945313 6.91429688 -21.28515625 6.90234375 C-19 7 -19 7 -18 8 C-11.23625504 8.72468696 -6.41680312 7.20780111 -1 3 C-0.67 2.01 -0.34 1.02 0 0 Z " fill="#576993" transform="translate(113,97)"/>
<path d="M0 0 C0.99 0 1.98 0 3 0 C3 8.25 3 16.5 3 25 C1.68 25.33 0.36 25.66 -1 26 C-1.02892857 22.04168191 -1.04677427 18.08339083 -1.0625 14.125 C-1.07087891 12.99707031 -1.07925781 11.86914062 -1.08789062 10.70703125 C-1.09111328 9.63066406 -1.09433594 8.55429687 -1.09765625 7.4453125 C-1.10289307 6.45031738 -1.10812988 5.45532227 -1.11352539 4.43017578 C-1 2 -1 2 0 0 Z " fill="#3C7EA5" transform="translate(85,51)"/>
<path d="M0 0 C1.13360712 3.40082136 0.84527772 5.5420457 0 9 C-0.35637289 10.60367799 -0.71038921 12.20788082 -1.0625 13.8125 C-1.37448212 15.20844918 -1.68680856 16.60432165 -2 18 C-2.33 18 -2.66 18 -3 18 C-3 15.03 -3 12.06 -3 9 C-3.94875 9.53625 -4.8975 10.0725 -5.875 10.625 C-6.50921875 10.98335937 -7.1434375 11.34171875 -7.796875 11.7109375 C-9.38895524 12.64247381 -10.95962199 13.61093946 -12.515625 14.6015625 C-13.37671875 15.14554688 -14.2378125 15.68953125 -15.125 16.25 C-15.93195312 16.77078125 -16.73890625 17.2915625 -17.5703125 17.828125 C-20.27062025 19.13052424 -22.04056062 19.23169988 -25 19 C-25.33 17.35 -25.66 15.7 -26 14 C-24.68 13.67 -23.36 13.34 -22 13 C-22.33 14.32 -22.66 15.64 -23 17 C-14.29161979 13.24085106 -5.35522518 8.03283778 0 0 Z " fill="#778FD2" transform="translate(74,53)"/>
<path d="M0 0 C0.9590625 0.09023437 1.918125 0.18046875 2.90625 0.2734375 C5.5 0.625 5.5 0.625 8.5 1.625 C9.16 2.945 9.82 4.265 10.5 5.625 C3.9 5.625 -2.7 5.625 -9.5 5.625 C-9.17 3.975 -8.84 2.325 -8.5 0.625 C-5.24544362 -0.45985213 -3.38029285 -0.33621192 0 0 Z " fill="#9577C6" transform="translate(64.5,106.375)"/>
<path d="M0 0 C2.0625 1.625 2.0625 1.625 4 4 C3.93088668 7.38655269 3.62064369 9.25522758 1.4375 11.875 C0.7259375 12.431875 0.7259375 12.431875 0 13 C0 12.34 0 11.68 0 11 C-2.97 10.01 -5.94 9.02 -9 8 C-8.375 5.625 -8.375 5.625 -7 3 C-3.9375 1.75 -3.9375 1.75 -1 1 C-0.67 0.67 -0.34 0.34 0 0 Z " fill="#6C8298" transform="translate(73,33)"/>
<path d="M0 0 C0.99 0 1.98 0 3 0 C3 0.66 3 1.32 3 2 C3.66 2 4.32 2 5 2 C5 5.96 5 9.92 5 14 C2.36 13.67 -0.28 13.34 -3 13 C0 11 0 11 3 11 C2.67 9.35 2.34 7.7 2 6 C1.22914062 6.08378906 0.45828125 6.16757813 -0.3359375 6.25390625 C-1.33882812 6.35574219 -2.34171875 6.45757812 -3.375 6.5625 C-4.87160156 6.71912109 -4.87160156 6.71912109 -6.3984375 6.87890625 C-9 7 -9 7 -11 6 C-11 5.34 -11 4.68 -11 4 C-3.25 2.875 -3.25 2.875 -1 4 C-0.67 2.68 -0.34 1.36 0 0 Z " fill="#7671B6" transform="translate(75,88)"/>
<path d="M0 0 C2.0625 0.4375 2.0625 0.4375 4 1 C4.33 3.31 4.66 5.62 5 8 C7.475 8.495 7.475 8.495 10 9 C10 9.33 10 9.66 10 10 C8.86111328 9.98259766 8.86111328 9.98259766 7.69921875 9.96484375 C6.70535156 9.95582031 5.71148437 9.94679688 4.6875 9.9375 C3.70136719 9.92589844 2.71523438 9.91429688 1.69921875 9.90234375 C-1.09963849 9.87670138 -1.09963849 9.87670138 -4 11 C-4.73323796 13.01508358 -4.73323796 13.01508358 -5 15 C-6.98 15 -8.96 15 -11 15 C-10.67 13.35 -10.34 11.7 -10 10 C-3.25 8 -3.25 8 -1 8 C-1.020625 6.865625 -1.04125 5.73125 -1.0625 4.5625 C-1 1 -1 1 0 0 Z " fill="#6453A5" transform="translate(60,97)"/>
<path d="M0 0 C0.98248524 4.0527516 1.08159574 7.83861737 1 12 C-0.65 12 -2.3 12 -4 12 C-2.68 11.67 -1.36 11.34 0 11 C-0.66 10.34 -1.32 9.68 -2 9 C-3.32 9 -4.64 9 -6 9 C-6 8.34 -6 7.68 -6 7 C-6.66 7 -7.32 7 -8 7 C-8 5.68 -8 4.36 -8 3 C-9.32 3.33 -10.64 3.66 -12 4 C-7.97476284 -0.30283972 -5.79398913 -1.40934871 0 0 Z " fill="#83A8C3" transform="translate(88,32)"/>
<path d="M0 0 C0 3.63 0 7.26 0 11 C-1.65 10.67 -3.3 10.34 -5 10 C-5 14.62 -5 19.24 -5 24 C-9 20 -9 20 -9.0234375 17.37890625 C-8.80945313 16.44949219 -8.59546875 15.52007812 -8.375 14.5625 C-8.17648438 13.63566406 -7.97796875 12.70882812 -7.7734375 11.75390625 C-4.47234043 0 -4.47234043 0 0 0 Z " fill="#5979B9" transform="translate(80,51)"/>
<path d="M0 0 C5.852795 0.51482919 11.3297637 1.45357192 17 3 C17 3.66 17 4.32 17 5 C13.25405125 7.49729916 11.44844343 7.2965629 7 7 C4.60170883 6.45980238 2.34192605 5.76471055 0 5 C0 3.35 0 1.7 0 0 Z " fill="#51769B" transform="translate(92,86)"/>
<path d="M0 0 C0.99 0.33 1.98 0.66 3 1 C3.33 4.3 3.66 7.6 4 11 C5.32 10.67 6.64 10.34 8 10 C8.33 10.33 8.66 10.66 9 11 C9.33 9.35 9.66 7.7 10 6 C10.33 6 10.66 6 11 6 C11 8.97 11 11.94 11 15 C9.02 15.99 7.04 16.98 5 18 C3.74335022 15.09399739 3 13.20395416 3 10 C2.34 10 1.68 10 1 10 C0.67 10.99 0.34 11.98 0 13 C0 8.71 0 4.42 0 0 Z " fill="#6E4BB7" transform="translate(60,70)"/>
<path d="M0 0 C3.60469399 0.30660205 7.20863688 0.62129297 10.8125 0.9375 C12.34874023 1.06801758 12.34874023 1.06801758 13.91601562 1.20117188 C14.89892578 1.28818359 15.88183594 1.37519531 16.89453125 1.46484375 C17.80050049 1.543396 18.70646973 1.62194824 19.63989258 1.70288086 C22 2 22 2 25 3 C26.39439664 3.06665376 27.79169875 3.08538199 29.1875 3.0625 C30.445625 3.041875 31.70375 3.02125 33 3 C33.495 5.475 33.495 5.475 34 8 C32.741875 7.87625 31.48375 7.7525 30.1875 7.625 C29.12595703 7.52058594 29.12595703 7.52058594 28.04296875 7.4140625 C26 7 26 7 23 5 C21.05956108 4.56351933 21.05956108 4.56351933 18.9453125 4.40234375 C18.16542969 4.32306641 17.38554688 4.24378906 16.58203125 4.16210938 C15.77121094 4.08798828 14.96039063 4.01386719 14.125 3.9375 C4.29835604 2.98322719 4.29835604 2.98322719 0 2 C0 1.34 0 0.68 0 0 Z " fill="#536281" transform="translate(91,74)"/>
<path d="M0 0 C-0.33 1.98 -0.66 3.96 -1 6 C-3.64 6.33 -6.28 6.66 -9 7 C-8.67 6.34 -8.34 5.68 -8 5 C-10.64 5 -13.28 5 -16 5 C-16 4.01 -16 3.02 -16 2 C-10.54538831 0.61470179 -5.63281599 -0.2396943 0 0 Z " fill="#87B8C8" transform="translate(110,59)"/>
<path d="M0 0 C2.31 0 4.62 0 7 0 C7 3.3 7 6.6 7 10 C5 10 3 10 1 10 C-0.60725635 6.78548731 -0.05748185 3.56387464 0 0 Z " fill="#563FA1" transform="translate(63,71)"/>
<path d="M0 0 C0.33 0.66 0.66 1.32 1 2 C2.65 1.34 4.3 0.68 6 0 C4.50678733 4.72850679 4.50678733 4.72850679 2.25 5.9375 C1.5075 6.288125 0.765 6.63875 0 7 C-1.57587907 8.53451741 -3.06211188 10.12456967 -4.53515625 11.7578125 C-6 13 -6 13 -9 13 C-8.4352699 9.09170915 -6.57868029 7.10079777 -3.9375 4.25 C-3.20402344 3.45078125 -2.47054687 2.6515625 -1.71484375 1.828125 C-1.14894531 1.22484375 -0.58304688 0.6215625 0 0 Z " fill="#6EABCA" transform="translate(73,46)"/>
<path d="M0 0 C3.01399879 4.52099819 3.12108347 7.86032065 3.0625 13.25 C3.05347656 14.32765625 3.04445313 15.4053125 3.03515625 16.515625 C3.02355469 17.33546875 3.01195313 18.1553125 3 19 C0.50907189 20.24546405 -0.41080733 19.7767578 -3 19 C-3 18.01 -3 17.02 -3 16 C-2.34 16 -1.68 16 -1 16 C-0.67 10.72 -0.34 5.44 0 0 Z " fill="#71A1D8" transform="translate(81,70)"/>
<path d="M0 0 C1.98 0 3.96 0 6 0 C6 0.33 6 0.66 6 1 C4.35 1 2.7 1 1 1 C1 1.99 1 2.98 1 4 C5.38585329 4.70173653 9.55790643 5.10834375 14 5 C13.360625 5.28875 12.72125 5.5775 12.0625 5.875 C9.84793921 6.82823451 9.84793921 6.82823451 9 9 C5.7 9 2.4 9 -1 9 C-0.67 6.03 -0.34 3.06 0 0 Z " fill="#6470A8" transform="translate(85,95)"/>
<path d="M0 0 C0.66 0 1.32 0 2 0 C3.4606285 2.64738916 4 3.89448334 4 7 C0.85069107 8.04976964 -1.38814456 8.10131595 -4.6875 8.0625 C-5.68136719 8.05347656 -6.67523438 8.04445313 -7.69921875 8.03515625 C-8.83810547 8.01775391 -8.83810547 8.01775391 -10 8 C-9.67 7.01 -9.34 6.02 -9 5 C-4.545 4.505 -4.545 4.505 0 4 C0 2.68 0 1.36 0 0 Z " fill="#789CB4" transform="translate(111,63)"/>
<path d="M0 0 C0.33 0.99 0.66 1.98 1 3 C1.99 3.33 2.98 3.66 4 4 C3.67 9.61 3.34 15.22 3 21 C2.67 21 2.34 21 2 21 C0.87137825 15.63904667 0.90311779 10.44693314 1 5 C-0.98 6.32 -2.96 7.64 -5 9 C-4.42647107 5.12867972 -2.51295648 2.91827204 0 0 Z " fill="#7DD0E3" transform="translate(80,46)"/>
<path d="M0 0 C6.40353322 -0.2361959 11.84629161 0.176679 18 2 C17.24432948 5.78630702 15.87402727 7.4041044 13 10 C13 7.69 13 5.38 13 3 C11.453125 3.061875 11.453125 3.061875 9.875 3.125 C6.13170373 3.00424851 3.46265453 2.35127982 0 1 C0 0.67 0 0.34 0 0 Z " fill="#5D6682" transform="translate(55,42)"/>
<path d="M0 0 C1.98 0 3.96 0 6 0 C6 3.96 6 7.92 6 12 C4.68 12 3.36 12 2 12 C2 8.37 2 4.74 2 1 C1.34 0.67 0.68 0.34 0 0 Z " fill="#7D8EC5" transform="translate(78,89)"/>
<path d="M0 0 C0.33 0 0.66 0 1 0 C1 1.65 1 3.3 1 5 C3.16666667 4.16666667 3.16666667 4.16666667 4 2 C4.33 3.65 4.66 5.3 5 7 C8.465 6.505 8.465 6.505 12 6 C12.33 5.01 12.66 4.02 13 3 C13.33 4.32 13.66 5.64 14 7 C12.35 7.33 10.7 7.66 9 8 C9 8.66 9 9.32 9 10 C5.65626525 9.44271087 2.96687001 8.64826111 0 7 C0 4.69 0 2.38 0 0 Z " fill="#7446BD" transform="translate(47,84)"/>
<path d="M0 0 C0.125 7.625 0.125 7.625 -1 11 C-2.98 10.34 -4.96 9.68 -7 9 C-7 8.34 -7 7.68 -7 7 C-6.34 7 -5.68 7 -5 7 C-4.87625 6.030625 -4.7525 5.06125 -4.625 4.0625 C-4.41875 3.051875 -4.2125 2.04125 -4 1 C-2 0 -2 0 0 0 Z " fill="#8C8DD8" transform="translate(75,81)"/>
<path d="M0 0 C0.66 0.66 1.32 1.32 2 2 C0.11248318 3.18007431 -1.78539195 4.34359173 -3.6875 5.5 C-4.74324219 6.1496875 -5.79898438 6.799375 -6.88671875 7.46875 C-9.9770971 8.98873534 -11.62703511 9.35043791 -15 9 C-15.33 7.35 -15.66 5.7 -16 4 C-14.68 3.67 -13.36 3.34 -12 3 C-12.33 4.32 -12.66 5.64 -13 7 C-11.39459341 6.21085079 -9.79071984 5.41858235 -8.1875 4.625 C-7.29417969 4.18414062 -6.40085937 3.74328125 -5.48046875 3.2890625 C-2.85443619 1.98133095 -2.85443619 1.98133095 0 0 Z " fill="#8A74C8" transform="translate(64,63)"/>
<path d="M0 0 C1.32 0.33 2.64 0.66 4 1 C3.37240135 3.92879371 2.41377341 6.36095629 1 9 C-1.31 8.34 -3.62 7.68 -6 7 C-6 6.01 -6 5.02 -6 4 C-4.35 3.67 -2.7 3.34 -1 3 C-0.67 2.01 -0.34 1.02 0 0 Z " fill="#516699" transform="translate(92,92)"/>
<path d="M0 0 C3.3 0 6.6 0 10 0 C10 1.65 10 3.3 10 5 C3.9453125 5.1953125 3.9453125 5.1953125 2 5 C1.34 4.34 0.68 3.68 0 3 C0 2.01 0 1.02 0 0 Z " fill="#656E7A" transform="translate(115,44)"/>
<path d="M0 0 C2.31 0.66 4.62 1.32 7 2 C7 3.98 7 5.96 7 8 C4.69 8 2.38 8 0 8 C0 5.36 0 2.72 0 0 Z " fill="#466797" transform="translate(84,104)"/>
<path d="M0 0 C0.33 1.65 0.66 3.3 1 5 C-1.31 5 -3.62 5 -6 5 C-6 7.31 -6 9.62 -6 12 C-6.66 11.67 -7.32 11.34 -8 11 C-7.8864371 9.35333797 -7.75882619 7.70763918 -7.625 6.0625 C-7.55539063 5.14597656 -7.48578125 4.22945313 -7.4140625 3.28515625 C-7.27742188 2.53105469 -7.14078125 1.77695313 -7 1 C-4.53721199 -0.231394 -2.7204945 -0.07159196 0 0 Z " fill="#5860A4" transform="translate(77,94)"/>
<path d="M0 0 C0.33 0.66 0.66 1.32 1 2 C1.66 2.33 2.32 2.66 3 3 C1.59138651 4.01131225 0.17274547 5.00866767 -1.25 6 C-2.43335938 6.8353125 -2.43335938 6.8353125 -3.640625 7.6875 C-6 9 -6 9 -10 9 C-8.59070303 5.52867905 -7.09394917 4.11906726 -3.875 2.25 C-3.15054688 1.82203125 -2.42609375 1.3940625 -1.6796875 0.953125 C-1.12539063 0.63859375 -0.57109375 0.3240625 0 0 Z " fill="#7F6CC1" transform="translate(63,57)"/>
<path d="M0 0 C1.65 0 3.3 0 5 0 C5 2.64 5 5.28 5 8 C3.35 8.33 1.7 8.66 0 9 C0 6.03 0 3.06 0 0 Z " fill="#484584" transform="translate(64,96)"/>
<path d="M0 0 C0.625 2.8125 0.625 2.8125 1 6 C0.01 7.485 0.01 7.485 -1 9 C-1.66 9 -2.32 9 -3 9 C-3.33 10.32 -3.66 11.64 -4 13 C-4.66 13 -5.32 13 -6 13 C-5.855625 12.319375 -5.71125 11.63875 -5.5625 10.9375 C-5.13859432 8.72377032 -4.82368942 6.48876645 -4.5625 4.25 C-4.376875 3.1775 -4.19125 2.105 -4 1 C-2 0 -2 0 0 0 Z " fill="#89C5DA" transform="translate(80,35)"/>
<path d="M0 0 C1.98 0 3.96 0 6 0 C6 2.31 6 4.62 6 7 C4.33388095 7.042721 2.66617115 7.04063832 1 7 C0 6 0 6 -0.0625 2.9375 C-0.041875 1.968125 -0.02125 0.99875 0 0 Z " fill="#4E6098" transform="translate(74,102)"/>
<path d="M0 0 C0.6875 1.6875 0.6875 1.6875 1 4 C-0.25 6.75 -0.25 6.75 -2 9 C-2.99 9 -3.98 9 -5 9 C-5.33 6.69 -5.66 4.38 -6 2 C-4.02 1.34 -2.04 0.68 0 0 Z " fill="#3D3570" transform="translate(58,94)"/>
<path d="M0 0 C0 2.97 0 5.94 0 9 C-2.31 9 -4.62 9 -7 9 C-5.99432671 5.98298013 -3.90847918 0 0 0 Z " fill="#466283" transform="translate(80,51)"/>
<path d="M0 0 C0.33 0 0.66 0 1 0 C1 4.95 1 9.9 1 15 C0.01 14.67 -0.98 14.34 -2 14 C-2.05437607 12.41705218 -2.09296271 10.83355744 -2.125 9.25 C-2.14820312 8.36828125 -2.17140625 7.4865625 -2.1953125 6.578125 C-1.99139502 3.8864142 -1.36551721 2.30095026 0 0 Z " fill="#2B6B91" transform="translate(87,59)"/>
<path d="M0 0 C-0.62648438 0.26554687 -1.25296875 0.53109375 -1.8984375 0.8046875 C-2.71570312 1.15789063 -3.53296875 1.51109375 -4.375 1.875 C-5.59316406 2.39707031 -5.59316406 2.39707031 -6.8359375 2.9296875 C-9.13802299 3.92446067 -9.13802299 3.92446067 -11 6 C-11.66 6.66 -12.32 7.32 -13 8 C-13.04241723 5.66705225 -13.04092937 3.33297433 -13 1 C-10.05749711 -1.94250289 -3.67139812 -1.1055446 0 0 Z " fill="#494567" transform="translate(43,44)"/>
<path d="M0 0 C0.66 0 1.32 0 2 0 C2.8723412 2.99480917 3.10829766 5.63575911 3.0625 8.75 C3.05347656 9.54921875 3.04445313 10.3484375 3.03515625 11.171875 C3.01775391 12.07679687 3.01775391 12.07679687 3 13 C2.01 13.33 1.02 13.66 0 14 C0 9.38 0 4.76 0 0 Z " fill="#354885" transform="translate(75,62)"/>
<path d="M0 0 C0.66 0.66 1.32 1.32 2 2 C1.625 4.625 1.625 4.625 1 7 C-1.97 7.66 -4.94 8.32 -8 9 C-8 8.01 -8 7.02 -8 6 C-7.05125 5.7525 -6.1025 5.505 -5.125 5.25 C-1.91306809 4.3142923 -1.91306809 4.3142923 -0.625 1.875 C-0.41875 1.25625 -0.2125 0.6375 0 0 Z " fill="#4F3F87" transform="translate(58,98)"/>
<path d="M0 0 C0.66 0.33 1.32 0.66 2 1 C1.50628906 1.49628906 1.01257812 1.99257812 0.50390625 2.50390625 C-3.72798465 6.99124328 -5.87019163 9.7691984 -6 16 C-6.33 16 -6.66 16 -7 16 C-7 12.04 -7 8.08 -7 4 C-1.7265625 0.77734375 -1.7265625 0.77734375 0 0 Z " fill="#2E294D" transform="translate(37,79)"/>
<path d="M0 0 C0.33 0 0.66 0 1 0 C1.04898438 0.78246094 1.09796875 1.56492187 1.1484375 2.37109375 C1.22320312 3.38300781 1.29796875 4.39492187 1.375 5.4375 C1.47941406 6.95150391 1.47941406 6.95150391 1.5859375 8.49609375 C1.72257812 9.32238281 1.85921875 10.14867188 2 11 C2.66 11.33 3.32 11.66 4 12 C3.01 12 2.02 12 1 12 C0.67 11.34 0.34 10.68 0 10 C-0.99 10 -1.98 10 -3 10 C-3 7.69 -3 5.38 -3 3 C-2.34 3 -1.68 3 -1 3 C-0.67 2.01 -0.34 1.02 0 0 Z " fill="#5A35B2" transform="translate(51,79)"/>
<path d="M0 0 C0 1.65 0 3.3 0 5 C-2.64 5.66 -5.28 6.32 -8 7 C-8 6.01 -8 5.02 -8 4 C-2.74285714 0 -2.74285714 0 0 0 Z " fill="#503E7B" transform="translate(48,78)"/>
<path d="M0 0 C0.99 0 1.98 0 3 0 C3 1.32 3 2.64 3 4 C3.66 4.33 4.32 4.66 5 5 C4.34 5 3.68 5 3 5 C3 6.32 3 7.64 3 9 C-0.3 9.33 -3.6 9.66 -7 10 C-6.01 9.67 -5.02 9.34 -4 9 C-4 8.34 -4 7.68 -4 7 C-2.35 7 -0.7 7 1 7 C0.67 6.01 0.34 5.02 0 4 C0.66 4 1.32 4 2 4 C2 3.01 2 2.02 2 1 C1.34 0.67 0.68 0.34 0 0 Z " fill="#62889E" transform="translate(108,58)"/>
<path d="M0 0 C3.12290635 0.48578543 5.99580359 0.9986012 9 2 C9 2.66 9 3.32 9 4 C5.37 4 1.74 4 -2 4 C-1.34 2.68 -0.68 1.36 0 0 Z " fill="#B48FDA" transform="translate(61,108)"/>
<path d="M0 0 C1.32 0.33 2.64 0.66 4 1 C4 3.64 4 6.28 4 9 C2.68 9 1.36 9 0 9 C0 6.03 0 3.06 0 0 Z " fill="#517EAD" transform="translate(80,103)"/>
<path d="M0 0 C1.32 0.99 2.64 1.98 4 3 C4.25 6.1875 4.25 6.1875 4 9 C2.68 9.33 1.36 9.66 0 10 C0 6.7 0 3.4 0 0 Z " fill="#6678CB" transform="translate(71,72)"/>
<path d="M0 0 C0.33 0 0.66 0 1 0 C1 4.62 1 9.24 1 14 C-3 13 -3 13 -4.25 10.9375 C-4.4975 10.298125 -4.745 9.65875 -5 9 C-3.35 9 -1.7 9 0 9 C0 6.03 0 3.06 0 0 Z " fill="#8C929B" transform="translate(124,29)"/>
<path d="M0 0 C0.33 0 0.66 0 1 0 C1.19491452 1.45736087 1.38069358 2.91594593 1.5625 4.375 C1.66691406 5.18710938 1.77132812 5.99921875 1.87890625 6.8359375 C2 9 2 9 1 11 C0.01 11 -0.98 11 -2 11 C-1.85957123 9.35369672 -1.71250671 7.70795821 -1.5625 6.0625 C-1.48128906 5.14597656 -1.40007812 4.22945313 -1.31640625 3.28515625 C-1 1 -1 1 0 0 Z " fill="#8CA5DA" transform="translate(90,76)"/>
<path d="M0 0 C0.99 0.33 1.98 0.66 3 1 C3 3.97 3 6.94 3 10 C2.34 10 1.68 10 1 10 C0.67 10.99 0.34 11.98 0 13 C0 8.71 0 4.42 0 0 Z " fill="#5952BA" transform="translate(60,70)"/>
<path d="M0 0 C-0.37047118 2.74148672 -0.68587944 4.58593199 -2.375 6.8125 C-4 8 -4 8 -7 8 C-6.44414399 4.1090079 -4.34122117 0 0 0 Z " fill="#859ED3" transform="translate(71,51)"/>
<path d="M0 0 C1.98 0 3.96 0 6 0 C6 0.99 6 1.98 6 3 C7.32 3.33 8.64 3.66 10 4 C6.7 4 3.4 4 0 4 C0 2.68 0 1.36 0 0 Z " fill="#7188AB" transform="translate(94,68)"/>
<path d="M0 0 C0 1.65 0 3.3 0 5 C-2.64 5 -5.28 5 -8 5 C-3.375 0 -3.375 0 0 0 Z " fill="#41456E" transform="translate(70,63)"/>
<path d="M0 0 C0.33 0.66 0.66 1.32 1 2 C1.99 1.67 2.98 1.34 4 1 C4 2.65 4 4.3 4 6 C4.66 6.33 5.32 6.66 6 7 C4.02 7.33 2.04 7.66 0 8 C0 5.36 0 2.72 0 0 Z " fill="#6D9FCD" transform="translate(84,81)"/>
<path d="M0 0 C0.99 0 1.98 0 3 0 C3 1.65 3 3.3 3 5 C0.50907189 6.24546405 -0.41080733 5.7767578 -3 5 C-3 4.01 -3 3.02 -3 2 C-2.01 2 -1.02 2 0 2 C0 1.34 0 0.68 0 0 Z " fill="#99B3E2" transform="translate(81,84)"/>
<path d="M0 0 C5.26053037 -0.31563182 8.44573816 0.33409063 13 3 C12.67 3.66 12.34 4.32 12 5 C10.02 4.34 8.04 3.68 6 3 C6 2.34 6 1.68 6 1 C4.35 1.33 2.7 1.66 1 2 C0.67 1.34 0.34 0.68 0 0 Z " fill="#596C8D" transform="translate(107,78)"/>
<path d="M0 0 C2.31 0.33 4.62 0.66 7 1 C6.6875 3.375 6.6875 3.375 6 6 C5.01 6.66 4.02 7.32 3 8 C3 5.69 3 3.38 3 1 C2.01 0.67 1.02 0.34 0 0 Z " fill="#4B5E79" transform="translate(65,44)"/>
<path d="M0 0 C0.721875 0.144375 1.44375 0.28875 2.1875 0.4375 C3.5796875 0.7159375 3.5796875 0.7159375 5 1 C6.66666667 1.33333333 8.33333333 1.66666667 10 2 C10 2.99 10 3.98 10 5 C8.35 5 6.7 5 5 5 C4.731875 4.360625 4.46375 3.72125 4.1875 3.0625 C3.11332248 0.66868314 3.11332248 0.66868314 0 0 Z " fill="#6D74B3" transform="translate(70,107)"/>
<path d="M0 0 C0.33 0 0.66 0 1 0 C1 3.3 1 6.6 1 10 C2.98 10.495 2.98 10.495 5 11 C4.34 11 3.68 11 3 11 C2.67 11.99 2.34 12.98 2 14 C1.01 14.495 1.01 14.495 0 15 C0 10.05 0 5.1 0 0 Z " fill="#476B83" transform="translate(91,50)"/>
<path d="M0 0 C0.99 0 1.98 0 3 0 C2.44271087 3.34373475 1.64826111 6.03312999 0 9 C-0.33 9 -0.66 9 -1 9 C-1.125 2.25 -1.125 2.25 0 0 Z " fill="#4896AC" transform="translate(85,51)"/>
<path d="M0 0 C2.64 0 5.28 0 8 0 C8 0.66 8 1.32 8 2 C5 4 5 4 2.875 3.8125 C2.25625 3.544375 1.6375 3.27625 1 3 C0.67 2.01 0.34 1.02 0 0 Z " fill="#475E71" transform="translate(103,51)"/>
<path d="M0 0 C0.66 0 1.32 0 2 0 C2 0.66 2 1.32 2 2 C2.66 1.67 3.32 1.34 4 1 C6.3329866 0.95977609 8.66706666 0.95679753 11 1 C10.67 1.66 10.34 2.32 10 3 C8.88625 2.9071875 8.88625 2.9071875 7.75 2.8125 C4.54616994 3.03094296 3.35968744 3.90250005 1 6 C0.67 4.02 0.34 2.04 0 0 Z " fill="#63798B" transform="translate(87,31)"/>
<path d="M0 0 C1.65 0 3.3 0 5 0 C4.67 1.65 4.34 3.3 4 5 C2.68 4.67 1.36 4.34 0 4 C0 2.68 0 1.36 0 0 Z " fill="#3D3880" transform="translate(63,71)"/>
<path d="M0 0 C0 3.58912412 -0.66436554 4.10857029 -3 6.6875 C-3.556875 7.31011719 -4.11375 7.93273438 -4.6875 8.57421875 C-5.120625 9.04472656 -5.55375 9.51523437 -6 10 C-6.66 9.34 -7.32 8.68 -8 8 C-5.36 5.36 -2.72 2.72 0 0 Z " fill="#5D84B7" transform="translate(75,50)"/>
<path d="M0 0 C0.33 0 0.66 0 1 0 C1.33 3.3 1.66 6.6 2 10 C-0.31 10.66 -2.62 11.32 -5 12 C-4.34 10.68 -3.68 9.36 -3 8 C-2.01 8 -1.02 8 0 8 C0 5.36 0 2.72 0 0 Z " fill="#A2C8DF" transform="translate(86,33)"/>
<path d="M0 0 C0 2.64 0 5.28 0 8 C-0.99 8 -1.98 8 -3 8 C-3 5.69 -3 3.38 -3 1 C-1 0 -1 0 0 0 Z " fill="#7080BD" transform="translate(91,87)"/>
<path d="M0 0 C0 1.32 0 2.64 0 4 C-2.31 3.67 -4.62 3.34 -7 3 C-7 2.34 -7 1.68 -7 1 C-4.50935112 0.31292445 -2.62113708 0 0 0 Z " fill="#6E4FAF" transform="translate(71,91)"/>
<path d="M0 0 C0 1.98 0 3.96 0 6 C-0.99 6.33 -1.98 6.66 -3 7 C-3.33 5.02 -3.66 3.04 -4 1 C-1 0 -1 0 0 0 Z " fill="#5E81BE" transform="translate(88,76)"/>
<path d="M0 0 C1.98 0 3.96 0 6 0 C6 1.98 6 3.96 6 6 C5.34 5.67 4.68 5.34 4 5 C4 4.01 4 3.02 4 2 C2.02 2.99 2.02 2.99 0 4 C0 2.68 0 1.36 0 0 Z " fill="#3E2388" transform="translate(53,79)"/>
<path d="M0 0 C0 2.31 0 4.62 0 7 C-0.99 7 -1.98 7 -3 7 C-3.33 5.35 -3.66 3.7 -4 2 C-1 0 -1 0 0 0 Z " fill="#73A0B8" transform="translate(85,34)"/>
<path d="M0 0 C2 1 2 1 3.125 4.0625 C3.41375 5.031875 3.7025 6.00125 4 7 C2.35 6.67 0.7 6.34 -1 6 C-0.67 4.02 -0.34 2.04 0 0 Z " fill="#8E74D6" transform="translate(61,84)"/>
<path d="M0 0 C0.93065133 2.60582371 1.14917407 3.64198224 0.0625 6.25 C-0.4634375 7.11625 -0.4634375 7.11625 -1 8 C-2.32 8 -3.64 8 -5 8 C-3.62845496 5.04590299 -2.01136276 2.55991624 0 0 Z " fill="#8BA6D7" transform="translate(74,53)"/>
<path d="M0 0 C0.99 0 1.98 0 3 0 C3 0.66 3 1.32 3 2 C3.66 2 4.32 2 5 2 C5 2.99 5 3.98 5 5 C3.35 4.67 1.7 4.34 0 4 C0 2.68 0 1.36 0 0 Z " fill="#6D6BB6" transform="translate(75,88)"/>
<path d="M0 0 C1.39195915 4.17587745 -0.17676781 6.13474776 -2 10 C-2.66 10 -3.32 10 -4 10 C-4.25 7.25 -4.25 7.25 -4 4 C-2 1.625 -2 1.625 0 0 Z " fill="#7065BE" transform="translate(79,76)"/>
<path d="M0 0 C0.66 0 1.32 0 2 0 C2.33 1.98 2.66 3.96 3 6 C1.02 6 -0.96 6 -3 6 C-2.67 5.34 -2.34 4.68 -2 4 C-1.34 4 -0.68 4 0 4 C0 2.68 0 1.36 0 0 Z " fill="#83B1C4" transform="translate(111,63)"/>
<path d="M0 0 C-0.33 1.32 -0.66 2.64 -1 4 C-1.99 3.67 -2.98 3.34 -4 3 C-4 3.66 -4 4.32 -4 5 C-4.66 5 -5.32 5 -6 5 C-6 3.68 -6 2.36 -6 1 C-3.92446352 0.4465236 -2.15634036 0 0 0 Z " fill="#292B44" transform="translate(36,62)"/>
<path d="M0 0 C1.2065625 0.0309375 1.2065625 0.0309375 2.4375 0.0625 C1.4475 0.5575 1.4475 0.5575 0.4375 1.0625 C0.7675 2.0525 1.0975 3.0425 1.4375 4.0625 C0.1175 4.3925 -1.2025 4.7225 -2.5625 5.0625 C-3.125 3.125 -3.125 3.125 -3.5625 1.0625 C-2.5625 0.0625 -2.5625 0.0625 0 0 Z " fill="#7A8197" transform="translate(105.5625,31.9375)"/>
<path d="M0 0 C2.0625 0.4375 2.0625 0.4375 4 1 C3.01 1 2.02 1 1 1 C1.33 2.65 1.66 4.3 2 6 C0.68 6 -0.64 6 -2 6 C-1.125 1.125 -1.125 1.125 0 0 Z " fill="#624C98" transform="translate(51,106)"/>
<path d="M0 0 C-0.99 0.33 -1.98 0.66 -3 1 C-3.73323796 3.01508358 -3.73323796 3.01508358 -4 5 C-4.99 4.67 -5.98 4.34 -7 4 C-7 2.68 -7 1.36 -7 0 C-3.86650268 -1.04449911 -3.01031744 -0.93423645 0 0 Z " fill="#7958AB" transform="translate(59,107)"/>
<path d="M0 0 C-0.99 1.485 -0.99 1.485 -2 3 C-3.32 3 -4.64 3 -6 3 C-6 2.01 -6 1.02 -6 0 C-3.50907189 -1.24546405 -2.58919267 -0.7767578 0 0 Z " fill="#7EA9C1" transform="translate(100,61)"/>
<path d="M0 0 C1.65 0 3.3 0 5 0 C5 1.32 5 2.64 5 4 C2.03 3.505 2.03 3.505 -1 3 C-0.67 2.01 -0.34 1.02 0 0 Z " fill="#566171" transform="translate(116,45)"/>
<path d="M0 0 C0.33 1.98 0.66 3.96 1 6 C0.01 6 -0.98 6 -2 6 C-2.66 4.35 -3.32 2.7 -4 1 C-2 0 -2 0 0 0 Z " fill="#B3E4F0" transform="translate(80,35)"/>
<path d="M0 0 C2.31 0.33 4.62 0.66 7 1 C5 3 5 3 2.375 3.125 C1.59125 3.08375 0.8075 3.0425 0 3 C0 2.01 0 1.02 0 0 Z " fill="#668594" transform="translate(102,27)"/>
</svg>
