<?xml version="1.0" encoding="UTF-8"?>
<svg version="1.1" xmlns="http://www.w3.org/2000/svg" width="97" height="97">
<path d="M0 0 C32.01 0 64.02 0 97 0 C97 32.01 97 64.02 97 97 C64.99 97 32.98 97 0 97 C0 64.99 0 32.98 0 0 Z " fill="#0099D0" transform="translate(0,0)"/>
<path d="M0 0 C32.01 0 64.02 0 97 0 C97 32.01 97 64.02 97 97 C83.8 97 70.6 97 57 97 C63.72110392 89.15871209 63.72110392 89.15871209 66.61865234 86.88671875 C86.45507645 71.72581462 86.45507645 71.72581462 96.98318481 50.16503906 C98.25190013 37.11044137 97.8765292 22.48301269 91 11 C89.20704504 8.75428292 89.20704504 8.75428292 87.1875 7.125 C86.56230469 6.57070312 85.93710938 6.01640625 85.29296875 5.4453125 C78.43976996 1.12557902 70.73758201 1.67849045 62.91015625 1.6640625 C61.65166367 1.6574057 60.39317108 1.6507489 59.09654236 1.64389038 C56.44125151 1.63378784 53.78637055 1.62820461 51.13110352 1.62939453 C47.74743929 1.6295978 44.36461421 1.60226754 40.98114872 1.56785011 C37.72835033 1.54012583 34.47555664 1.54142948 31.22265625 1.5390625 C30.01722672 1.52469147 28.81179718 1.51032043 27.56983948 1.49551392 C19.50600911 1.5391155 13.99285141 2.50103788 7.7578125 7.96484375 C3.55627406 12.9988241 3.55627406 12.9988241 1 19 C0.67 19 0.34 19 0 19 C0 12.73 0 6.46 0 0 Z " fill="#3F6DED" transform="translate(0,0)"/>
<path d="M0 0 C1.46469727 0.00966797 1.46469727 0.00966797 2.95898438 0.01953125 C3.96638672 0.03628906 4.97378906 0.05304688 6.01171875 0.0703125 C7.03845703 0.07933594 8.06519531 0.08835938 9.12304688 0.09765625 C11.64867774 0.12115049 14.17382685 0.15400119 16.69921875 0.1953125 C12.3335969 5.41464465 7.74683343 10.29468887 2.9296875 15.09765625 C1.84727531 16.18150352 1.84727531 16.18150352 0.74299622 17.2872467 C-0.76931043 18.80022941 -2.28286283 20.31196786 -3.79760742 21.82250977 C-6.12731112 24.14680983 -8.45156976 26.4764605 -10.77539062 28.80664062 C-12.24837696 30.278967 -13.72167302 31.7509836 -15.1953125 33.22265625 C-15.8931636 33.92253159 -16.59101471 34.62240692 -17.31001282 35.3434906 C-17.95125595 35.98158157 -18.59249908 36.61967255 -19.25317383 37.27709961 C-19.81909744 37.84222763 -20.38502106 38.40735565 -20.96809387 38.98960876 C-22.30078125 40.1953125 -22.30078125 40.1953125 -23.30078125 40.1953125 C-23.41816065 36.69560051 -23.48842086 33.19640295 -23.55078125 29.6953125 C-23.58429687 28.71304687 -23.6178125 27.73078125 -23.65234375 26.71875 C-23.75712654 18.86004059 -22.36667557 13.6506138 -17.1171875 7.734375 C-16.00150391 6.78691406 -16.00150391 6.78691406 -14.86328125 5.8203125 C-14.12207031 5.17320312 -13.38085938 4.52609375 -12.6171875 3.859375 C-8.52969427 0.92299707 -5.00519109 -0.05854025 0 0 Z " fill="#3F6FED" transform="translate(23.30078125,0.8046875)"/>
<path d="M0 0 C32.01 0 64.02 0 97 0 C97 32.01 97 64.02 97 97 C90.4 97 83.8 97 77 97 C80 95 80 95 83.3125 93.3125 C89.03360937 90.03983151 92.82295321 85.69829637 94.57688904 79.29301453 C95.51172746 74.22673576 95.32647208 69.04532047 95.3359375 63.91015625 C95.3425943 62.65166367 95.3492511 61.39317108 95.35610962 60.09654236 C95.36621216 57.44125151 95.37179539 54.78637055 95.37060547 52.13110352 C95.3704022 48.74743929 95.39773246 45.36461421 95.43214989 41.98114872 C95.45987417 38.72835033 95.45857052 35.47555664 95.4609375 32.22265625 C95.47530853 31.01722672 95.48967957 29.81179718 95.50448608 28.56983948 C95.4607959 20.48962269 94.44838344 15.08117958 89.10546875 8.7578125 C88.47253906 8.21898437 87.83960937 7.68015625 87.1875 7.125 C86.56230469 6.57070312 85.93710938 6.01640625 85.29296875 5.4453125 C78.43976996 1.12557902 70.73758201 1.67849045 62.91015625 1.6640625 C61.65166367 1.6574057 60.39317108 1.6507489 59.09654236 1.64389038 C56.44125151 1.63378784 53.78637055 1.62820461 51.13110352 1.62939453 C47.74743929 1.6295978 44.36461421 1.60226754 40.98114872 1.56785011 C37.72835033 1.54012583 34.47555664 1.54142948 31.22265625 1.5390625 C30.01722672 1.52469147 28.81179718 1.51032043 27.56983948 1.49551392 C19.50600911 1.5391155 13.99285141 2.50103788 7.7578125 7.96484375 C3.55627406 12.9988241 3.55627406 12.9988241 1 19 C0.67 19 0.34 19 0 19 C0 12.73 0 6.46 0 0 Z " fill="#F7F9FD" transform="translate(0,0)"/>
<path d="M0 0 C0.99 0.33 1.98 0.66 3 1 C3.33 12.22 3.66 23.44 4 35 C15.22 35.33 26.44 35.66 38 36 C38 37.32 38 38.64 38 40 C32.92803651 40.09884645 27.856633 40.17145653 22.78393555 40.21972656 C21.05825027 40.23984739 19.33263322 40.26714748 17.60717773 40.30175781 C15.1272703 40.35025758 12.64826372 40.37296304 10.16796875 40.390625 C9.39599655 40.41127014 8.62402435 40.43191528 7.82865906 40.45318604 C4.67729111 40.45450745 2.55975789 40.42859146 0.01000977 38.47631836 C-1.41291184 34.98763238 -1.38979111 31.69320231 -1.328125 27.98828125 C-1.32625183 27.21945114 -1.32437866 26.45062103 -1.32244873 25.65849304 C-1.31574199 24.03880454 -1.30185482 22.41913187 -1.28125 20.79956055 C-1.24997969 18.31088338 -1.24026636 15.8228389 -1.234375 13.33398438 C-1.22520938 11.76040888 -1.21483501 10.18683987 -1.203125 8.61328125 C-1.19887512 7.86540848 -1.19462524 7.11753571 -1.19024658 6.34700012 C-1.1171875 1.1171875 -1.1171875 1.1171875 0 0 Z " fill="#F4F7FE" transform="translate(29,29)"/>
<path d="M0 0 C-4.36562185 5.21933215 -8.95238532 10.09937637 -13.76953125 14.90234375 C-14.85194344 15.98619102 -14.85194344 15.98619102 -15.95622253 17.0919342 C-17.46852918 18.60491691 -18.98208158 20.11665536 -20.49682617 21.62719727 C-22.82652987 23.95149733 -25.15078851 26.281148 -27.47460938 28.61132812 C-28.94759571 30.0836545 -30.42089177 31.5556711 -31.89453125 33.02734375 C-32.59238235 33.72721909 -33.29023346 34.42709442 -34.00923157 35.1481781 C-34.6504747 35.78626907 -35.29171783 36.42436005 -35.95239258 37.08178711 C-36.51831619 37.64691513 -37.08423981 38.21204315 -37.66731262 38.79429626 C-39 40 -39 40 -40 40 C-40.79872103 33.3167482 -40.79872103 33.3167482 -38.81274414 30.04272461 C-37.05399639 27.99671561 -35.21214427 26.10331111 -33.28125 24.21875 C-32.58994995 23.51979614 -31.8986499 22.82084229 -31.18640137 22.10070801 C-29.72328139 20.6321578 -28.25006408 19.17360737 -26.76757812 17.72460938 C-24.50677444 15.50664607 -22.29182856 13.24923971 -20.078125 10.984375 C-18.64839126 9.55992796 -17.21617771 8.13796471 -15.78125 6.71875 C-15.12257935 6.0438855 -14.46390869 5.369021 -13.78527832 4.67370605 C-9.12548993 0.19750552 -6.45183444 -0.77106415 0 0 Z " fill="#1A7AE6" transform="translate(40,1)"/>
<path d="M0 0 C0.77270904 6.70919481 0.77270904 6.70919481 -1.1484375 9.91845703 C-2.84769774 11.90462595 -4.62857739 13.73748775 -6.5 15.5625 C-7.169104 16.23925781 -7.83820801 16.91601562 -8.52758789 17.61328125 C-9.94363041 19.034753 -11.36976793 20.4462306 -12.80517578 21.84814453 C-14.99358928 23.99371479 -17.13603413 26.17862489 -19.27734375 28.37109375 C-20.66150482 29.74996809 -22.04814564 31.12635857 -23.4375 32.5 C-24.39269531 33.47948608 -24.39269531 33.47948608 -25.3671875 34.47875977 C-28.66948748 37.64675362 -30.77977028 39.38975117 -35.47265625 39.40625 C-36.63667969 39.2721875 -37.80070312 39.138125 -39 39 C-34.69849478 33.86187175 -30.19337975 29.0461448 -25.44921875 24.31640625 C-24.74980667 23.61603745 -24.05039459 22.91566864 -23.32978821 22.19407654 C-21.86455991 20.72817238 -20.39808666 19.26351161 -18.93041992 17.80004883 C-16.67314318 15.54817756 -14.42131555 13.2909546 -12.16992188 11.03320312 C-10.74250846 9.60644965 -9.31478535 8.18000594 -7.88671875 6.75390625 C-6.87275276 5.73690392 -6.87275276 5.73690392 -5.83830261 4.69935608 C-5.21708023 4.08128586 -4.59585785 3.46321564 -3.95581055 2.82641602 C-3.40765182 2.27905289 -2.8594931 1.73168976 -2.29472351 1.16773987 C-1 0 -1 0 0 0 Z " fill="#177BE5" transform="translate(96,58)"/>
<path d="M0 0 C0.495 1.98 0.495 1.98 1 4 C-0.02970886 5.66462708 -0.02970886 5.66462708 -1.66870117 7.31567383 C-2.58041328 8.25102715 -2.58041328 8.25102715 -3.51054382 9.20527649 C-4.18124405 9.86585556 -4.85194427 10.52643463 -5.54296875 11.20703125 C-6.2229744 11.89182053 -6.90298004 12.5766098 -7.60359192 13.28215027 C-9.0460681 14.72803215 -10.4948906 16.16760591 -11.94946289 17.60131836 C-14.17876844 19.80387322 -16.38019117 22.03177761 -18.58007812 24.26367188 C-19.98277459 25.66306436 -21.38702125 27.06090507 -22.79296875 28.45703125 C-23.45354782 29.12773148 -24.11412689 29.7984317 -24.79472351 30.48945618 C-25.41829239 31.09726425 -26.04186127 31.70507233 -26.68432617 32.33129883 C-27.2291716 32.87216629 -27.77401703 33.41303375 -28.33537292 33.97029114 C-28.88469986 34.31009506 -29.43402679 34.64989899 -30 35 C-31.32 34.67 -32.64 34.34 -34 34 C-22.78 22.78 -11.56 11.56 0 0 Z " fill="#2876E8" transform="translate(95,62)"/>
<path d="M0 0 C1.22916667 2.45833333 2.45833333 4.91666667 3.6875 7.375 C6.91039722 12.96696718 11.78626672 17.11705052 18 19 C18 19.33 18 19.66 18 20 C12.06 20 6.12 20 0 20 C0 13.4 0 6.8 0 0 Z " fill="#F1F8FA" transform="translate(0,77)"/>
<path d="M0 0 C0.99 0.33 1.98 0.66 3 1 C3 9.58 3 18.16 3 27 C1.68 27 0.36 27 -1 27 C-1.02886537 22.68751391 -1.04675255 18.37505238 -1.0625 14.0625 C-1.07087891 12.83080078 -1.07925781 11.59910156 -1.08789062 10.33007812 C-1.09111328 9.16025391 -1.09433594 7.99042969 -1.09765625 6.78515625 C-1.10289307 5.70113525 -1.10812988 4.61711426 -1.11352539 3.50024414 C-1 1 -1 1 0 0 Z " fill="#F5F7FE" transform="translate(49,33)"/>
<path d="M0 0 C0.99 0.33 1.98 0.66 3 1 C3 6.94 3 12.88 3 19 C1.68 19 0.36 19 -1 19 C-1.02683987 16.02077407 -1.04676037 13.04178705 -1.0625 10.0625 C-1.07087891 9.21236328 -1.07925781 8.36222656 -1.08789062 7.48632812 C-1.09111328 6.67744141 -1.09433594 5.86855469 -1.09765625 5.03515625 C-1.10289307 4.2862915 -1.10812988 3.53742676 -1.11352539 2.76586914 C-1 1 -1 1 0 0 Z " fill="#F4F7FE" transform="translate(59,41)"/>
<path d="M0 0 C0.99 0.33 1.98 0.66 3 1 C3 3.64 3 6.28 3 9 C1.68 9 0.36 9 -1 9 C-1.09765625 2.84765625 -1.09765625 2.84765625 -1 1 C-0.67 0.67 -0.34 0.34 0 0 Z " fill="#F2F6FE" transform="translate(39,51)"/>
</svg>
