<?xml version="1.0" encoding="UTF-8"?>
<svg version="1.1" xmlns="http://www.w3.org/2000/svg" width="112" height="100">
<path d="M0 0 C36.96 0 73.92 0 112 0 C112 33 112 66 112 100 C75.04 100 38.08 100 0 100 C0 67 0 34 0 0 Z " fill="#0196D3" transform="translate(0,0)"/>
<path d="M0 0 C23.76 0 47.52 0 72 0 C72 23.76 72 47.52 72 72 C48.24 72 24.48 72 0 72 C0 48.24 0 24.48 0 0 Z " fill="#0F0B22" transform="translate(21,14)"/>
<path d="M0 0 C36.96 0 73.92 0 112 0 C112 33 112 66 112 100 C75.04 100 38.08 100 0 100 C0 67 0 34 0 0 Z M14.625 10.4375 C13.97789063 11.17871094 13.33078125 11.91992188 12.6640625 12.68359375 C9.57071297 16.98959438 8.74837224 20.68951484 8.70947266 25.94848633 C8.69671295 27.12353226 8.68395325 28.29857819 8.67080688 29.50923157 C8.66858124 30.77075546 8.66635559 32.03227936 8.6640625 33.33203125 C8.6574057 34.63774582 8.6507489 35.94346039 8.64389038 37.28874207 C8.63193808 40.05003159 8.62820734 42.81119621 8.62939453 45.57250977 C8.62959741 49.09298176 8.6023197 52.61264369 8.56785011 56.13292408 C8.54012196 59.51180384 8.54142891 62.89053939 8.5390625 66.26953125 C8.52469147 67.52498245 8.51032043 68.78043365 8.49551392 70.07392883 C8.53907913 78.4602332 9.46722151 84.0185144 15.18359375 90.4609375 C16.29927734 91.40839844 16.29927734 91.40839844 17.4375 92.375 C18.17871094 93.02210937 18.91992188 93.66921875 19.68359375 94.3359375 C23.98959438 97.42928703 27.68951484 98.25162776 32.94848633 98.29052734 C34.12353226 98.30328705 35.29857819 98.31604675 36.50923157 98.32919312 C38.40151741 98.33253159 38.40151741 98.33253159 40.33203125 98.3359375 C41.63774582 98.3425943 42.94346039 98.3492511 44.28874207 98.35610962 C47.05003159 98.36806192 49.81119621 98.37179266 52.57250977 98.37060547 C56.09298176 98.37040259 59.61264369 98.3976803 63.13292408 98.43214989 C66.51180384 98.45987804 69.89053939 98.45857109 73.26953125 98.4609375 C75.15270805 98.48249405 75.15270805 98.48249405 77.07392883 98.50448608 C85.4602332 98.46092087 91.0185144 97.53277849 97.4609375 91.81640625 C98.40839844 90.70072266 98.40839844 90.70072266 99.375 89.5625 C100.02210937 88.82128906 100.66921875 88.08007812 101.3359375 87.31640625 C104.42928703 83.01040562 105.25162776 79.31048516 105.29052734 74.05151367 C105.30328705 72.87646774 105.31604675 71.70142181 105.32919312 70.49076843 C105.33141876 69.22924454 105.33364441 67.96772064 105.3359375 66.66796875 C105.3425943 65.36225418 105.3492511 64.05653961 105.35610962 62.71125793 C105.36806192 59.94996841 105.37179266 57.18880379 105.37060547 54.42749023 C105.37040259 50.90701824 105.3976803 47.38735631 105.43214989 43.86707592 C105.45987804 40.48819616 105.45857109 37.10946061 105.4609375 33.73046875 C105.47530853 32.47501755 105.48967957 31.21956635 105.50448608 29.92607117 C105.46092087 21.5397668 104.53277849 15.9814856 98.81640625 9.5390625 C97.70072266 8.59160156 97.70072266 8.59160156 96.5625 7.625 C95.82128906 6.97789062 95.08007812 6.33078125 94.31640625 5.6640625 C90.01040562 2.57071297 86.31048516 1.74837224 81.05151367 1.70947266 C79.28894478 1.6903331 79.28894478 1.6903331 77.49076843 1.67080688 C75.59848259 1.66746841 75.59848259 1.66746841 73.66796875 1.6640625 C72.36225418 1.6574057 71.05653961 1.6507489 69.71125793 1.64389038 C66.94996841 1.63193808 64.18880379 1.62820734 61.42749023 1.62939453 C57.90701824 1.62959741 54.38735631 1.6023197 50.86707592 1.56785011 C47.48819616 1.54012196 44.10946061 1.54142891 40.73046875 1.5390625 C39.47501755 1.52469147 38.21956635 1.51032043 36.92607117 1.49551392 C27.53130535 1.54431789 20.9664967 2.97006409 14.625 10.4375 Z " fill="#FBFCFD" transform="translate(0,0)"/>
<path d="M0 0 C1.7555172 2.72216275 2.26808232 5.38332023 2.984375 8.5390625 C4.62759825 15.38893179 7.0409889 21.69107126 9.94824219 28.10205078 C11.74675356 32.18841767 12.79028956 35.35423949 12.234375 39.9140625 C9.9044797 43.40890545 9.32435666 43.43660891 5.40234375 44.30078125 C3.95698242 44.6246582 3.95698242 44.6246582 2.48242188 44.95507812 C0.96745117 45.27508789 0.96745117 45.27508789 -0.578125 45.6015625 C-1.57650391 45.82650391 -2.57488281 46.05144531 -3.60351562 46.28320312 C-13.04356588 48.35234139 -13.04356588 48.35234139 -16.765625 47.9140625 C-18.20043945 46.49804688 -18.20043945 46.49804688 -19.31640625 44.5078125 C-19.72842285 43.775625 -20.14043945 43.0434375 -20.56494141 42.2890625 C-22.53330498 38.39556091 -24.29245586 34.44757859 -25.953125 30.4140625 C-26.29537109 29.61097656 -26.63761719 28.80789062 -26.99023438 27.98046875 C-29.93374971 20.92746307 -32.67845052 13.67307945 -31.765625 5.9140625 C-29.09426349 3.41561557 -26.76532464 2.43924705 -23.2109375 1.74609375 C-21.91736328 1.48989258 -21.91736328 1.48989258 -20.59765625 1.22851562 C-19.70433594 1.06287109 -18.81101562 0.89722656 -17.890625 0.7265625 C-17.00503906 0.54931641 -16.11945312 0.37207031 -15.20703125 0.18945312 C-3.39764947 -2.08970476 -3.39764947 -2.08970476 0 0 Z " fill="#7D96DD" transform="translate(67.765625,26.0859375)"/>
<path d="M0 0 C1.80130119 0.00022659 1.80130119 0.00022659 3.63899231 0.00045776 C5.56892281 0.01594162 5.56892281 0.01594162 7.5378418 0.03173828 C8.87590829 0.03547166 10.21397752 0.0383171 11.55204773 0.04031372 C15.06197753 0.04792462 18.57174 0.06755096 22.081604 0.08972168 C25.66790504 0.11023514 29.25423329 0.11932716 32.84057617 0.12939453 C39.8686394 0.15079949 46.89659192 0.18490447 53.92456055 0.22705078 C53.17255371 0.80040161 52.42054687 1.37375244 51.64575195 1.96447754 C49.20764601 3.99167535 47.4005929 6.00429878 45.38549805 8.42822266 C42.05792843 11.77871691 39.8630211 12.80962565 35.15112305 13.13525391 C32.95019571 13.13399986 30.74898881 13.08952922 28.54956055 13.00830078 C27.38448975 12.9969812 26.21941895 12.98566162 25.01904297 12.97399902 C21.31916808 12.92942371 17.62325227 12.82908366 13.92456055 12.72705078 C11.40768966 12.6869 8.89075767 12.65040206 6.3737793 12.61767578 C0.22270229 12.52975005 -5.92608573 12.39609859 -12.07543945 12.22705078 C-12.05323334 12.8688327 -12.03102722 13.51061462 -12.00814819 14.17184448 C-11.78587958 20.88791874 -11.63567884 27.60293968 -11.52612305 34.32177734 C-11.47601711 36.82448804 -11.40790967 39.32690867 -11.32104492 41.82861328 C-10.57637726 63.83573288 -10.57637726 63.83573288 -14.27563477 69.04833984 C-16.75275149 71.50049821 -19.1603008 73.34170671 -22.07543945 75.22705078 C-22.73543945 76.21705078 -23.39543945 77.20705078 -24.07543945 78.22705078 C-24.1684459 70.5423137 -24.23935898 62.85763557 -24.28268814 55.17246246 C-24.3034926 51.60321559 -24.33167714 48.03435605 -24.37719727 44.46533203 C-24.42091346 41.01584612 -24.44463017 37.56673086 -24.45494843 34.11698914 C-24.4658495 32.17165896 -24.49703411 30.22647626 -24.52862549 28.28137207 C-24.53075438 19.82113858 -23.65886785 14.26561946 -17.8918457 7.76611328 C-16.77616211 6.81865234 -16.77616211 6.81865234 -15.63793945 5.85205078 C-14.89672852 5.20494141 -14.15551758 4.55783203 -13.3918457 3.89111328 C-9.02383836 0.7532193 -5.33499852 -0.02246315 0 0 Z " fill="#3E6BEE" transform="translate(33.075439453125,1.77294921875)"/>
<path d="M0 0 C2.24429914 3.59087863 3.63374014 7.90861622 2.859375 12.12890625 C1.66908848 15.78369627 1.66908848 15.78369627 -0.6875 17 C-1.368125 17.33 -2.04875 17.66 -2.75 18 C-3.41 18.66 -4.07 19.32 -4.75 20 C-4.75 19.34 -4.75 18.68 -4.75 18 C-6.69074861 18.27617533 -6.69074861 18.27617533 -8.75 19 C-9.41 19.99 -10.07 20.98 -10.75 22 C-10.75 21.34 -10.75 20.68 -10.75 20 C-12.4 20 -14.05 20 -15.75 20 C-14.76 21.98 -13.77 23.96 -12.75 26 C-13.41 26.66 -14.07 27.32 -14.75 28 C-17.375 27.625 -17.375 27.625 -19.75 27 C-20.89988097 32.31819947 -20.56180046 36.62182193 -19.75 42 C-22.91327436 38.32402368 -24.51636242 34.19206069 -26.3125 29.75 C-26.61607422 29.02425781 -26.91964844 28.29851563 -27.23242188 27.55078125 C-30.04937682 20.66489138 -32.63683657 13.53811081 -31.75 6 C-29.07863849 3.50155307 -26.74969964 2.52518455 -23.1953125 1.83203125 C-21.90173828 1.57583008 -21.90173828 1.57583008 -20.58203125 1.31445312 C-19.68871094 1.14880859 -18.79539062 0.98316406 -17.875 0.8125 C-16.98941406 0.63525391 -16.10382812 0.45800781 -15.19140625 0.27539062 C-3.47514274 -1.98579585 -3.47514274 -1.98579585 0 0 Z " fill="#917BDF" transform="translate(67.75,26)"/>
<path d="M0 0 C3 1 3 1 4.6875 4.1875 C6.00371686 7.56117164 6.41375031 10.35899729 6 14 C3.6701047 17.49484295 3.08998166 17.52254641 -0.83203125 18.38671875 C-1.79560547 18.60263672 -2.75917969 18.81855469 -3.75195312 19.04101562 C-5.26692383 19.36102539 -5.26692383 19.36102539 -6.8125 19.6875 C-8.31006836 20.02491211 -8.31006836 20.02491211 -9.83789062 20.36914062 C-14.31920426 21.35138725 -18.39455807 22.13090403 -23 22 C-24 20 -24 20 -23.0625 16.875 C-22.711875 15.92625 -22.36125 14.9775 -22 14 C-21.67 14.66 -21.34 15.32 -21 16 C-15.555 15.01 -15.555 15.01 -10 14 C-10.66 12.35 -11.32 10.7 -12 9 C-10.2984375 8.38125 -10.2984375 8.38125 -8.5625 7.75 C-4.90456616 6.43314602 -4.90456616 6.43314602 -4.0625 3.8125 C-4.041875 3.214375 -4.02125 2.61625 -4 2 C-2.68 2 -1.36 2 0 2 C0 1.34 0 0.68 0 0 Z " fill="#6CCCDE" transform="translate(74,52)"/>
<path d="M0 0 C1.28317892 3.84953676 1.06643637 6.94738135 1 11 C-2.79503494 12.68197079 -6.33634722 13.51634835 -10.4375 14.125 C-11.52933594 14.29257812 -12.62117188 14.46015625 -13.74609375 14.6328125 C-16.86422182 14.98467809 -19.86545612 15.06618946 -23 15 C-23.66 11.7 -24.32 8.4 -25 5 C-16.88055314 2.02286948 -8.69193054 0 0 0 Z " fill="#66419B" transform="translate(66,28)"/>
<path d="M0 0 C2 2 2 2 2 5 C0.68 5.33 -0.64 5.66 -2 6 C-2.04125 6.61875 -2.0825 7.2375 -2.125 7.875 C-2.558125 8.926875 -2.558125 8.926875 -3 10 C-6.0625 11.25 -6.0625 11.25 -9 12 C-8.34 13.65 -7.68 15.3 -7 17 C-10.90028225 19.60018816 -14.47434569 19.15085514 -19 19 C-19.33 18.01 -19.66 17.02 -20 16 C-18.02 15.01 -16.04 14.02 -14 13 C-16.15634036 13 -17.92446352 13.4465236 -20 14 C-20.66 12.68 -21.32 11.36 -22 10 C-18.12315913 8.80712589 -15.08378077 8 -11 8 C-11.33 6.02 -11.66 4.04 -12 2 C-11.21625 1.855625 -10.4325 1.71125 -9.625 1.5625 C-1.72839506 -0.12962963 -1.72839506 -0.12962963 0 0 Z " fill="#7DBCDF" transform="translate(72,49)"/>
<path d="M0 0 C2.28862127 3.66179403 3.26693375 7.76051148 3.234375 12.06640625 C1.88326239 14.72037746 -0.01508748 15.34547313 -2.72216797 16.36572266 C-6.04576927 17.40529841 -9.38485125 18.09067819 -12.8125 18.6875 C-13.8344043 18.88182617 -13.8344043 18.88182617 -14.87695312 19.08007812 C-18.88185868 19.80719354 -22.68314952 20.13323535 -26.75 20 C-28.08583899 15.15758367 -29.00328119 11.06562383 -28.75 6 C-25.11576791 3.67409146 -21.97911669 3.83734167 -17.75 4 C-20.66765 5.9451 -22.37537285 6.45276317 -25.75 7 C-25.42 10.3 -25.09 13.6 -24.75 17 C-21.68729585 16.52210995 -18.62483655 16.04273513 -15.5625 15.5625 C-14.69818359 15.42779297 -13.83386719 15.29308594 -12.94335938 15.15429688 C-11.68168945 14.95610352 -11.68168945 14.95610352 -10.39453125 14.75390625 C-9.23981323 14.57323608 -9.23981323 14.57323608 -8.06176758 14.38891602 C-5.61530796 13.97734033 -3.1826622 13.48653244 -0.75 13 C-1.08 9.37 -1.41 5.74 -1.75 2 C-3.3175 2.33 -4.885 2.66 -6.5 3 C-9.75700022 3.68568426 -12.3825319 4 -15.75 4 C-15.75 3.34 -15.75 2.68 -15.75 2 C-16.41 1.67 -17.07 1.34 -17.75 1 C-3.69444444 -2.11111111 -3.69444444 -2.11111111 0 0 Z " fill="#8963C8" transform="translate(67.75,26)"/>
<path d="M0 0 C2.05268945 2.05268945 2.77409565 3.46640074 3.91015625 6.09765625 C4.26013672 6.89880859 4.61011719 7.69996094 4.97070312 8.52539062 C5.51114258 9.78125977 5.51114258 9.78125977 6.0625 11.0625 C6.78051919 12.72093371 7.50046993 14.37853293 8.22265625 16.03515625 C8.53984619 16.7712915 8.85703613 17.50742676 9.18383789 18.26586914 C9.87449874 19.98739035 9.87449874 19.98739035 11 21 C17.86249289 20.94134621 24.50058215 19.28720281 31.1171875 17.62109375 C34 17 34 17 38 17 C38.495 15.515 38.495 15.515 39 14 C39.495 14.99 39.495 14.99 40 16 C37.69958987 18.65545736 35.79156697 19.59551199 32.4375 20.5625 C28.84760436 21.60178953 28.84760436 21.60178953 26 24 C22.4744746 25.28568472 18.96555437 25.09965554 15.25 25.0625 C14.07953125 25.05347656 12.9090625 25.04445313 11.703125 25.03515625 C10.81109375 25.02355469 9.9190625 25.01195313 9 25 C8.51080078 24.09507813 8.51080078 24.09507813 8.01171875 23.171875 C7.57472656 22.37265625 7.13773438 21.5734375 6.6875 20.75 C6.25824219 19.96109375 5.82898437 19.1721875 5.38671875 18.359375 C4.08436031 15.98719769 4.08436031 15.98719769 2.375 14.09375 C0.53658189 11.29434061 0.49296617 9.07057755 0.3125 5.75 C0.24675781 4.67234375 0.18101563 3.5946875 0.11328125 2.484375 C0.07589844 1.66453125 0.03851563 0.8446875 0 0 Z " fill="#2D2952" transform="translate(40,52)"/>
<path d="M0 0 C-0.71027344 0.30292969 -1.42054687 0.60585937 -2.15234375 0.91796875 C-3.07144531 1.33691406 -3.99054688 1.75585938 -4.9375 2.1875 C-5.85402344 2.59355469 -6.77054688 2.99960938 -7.71484375 3.41796875 C-10.24817296 4.8223391 -10.24817296 4.8223391 -10.81640625 7.67578125 C-10.90728516 8.82626953 -10.90728516 8.82626953 -11 10 C-18.53181418 10.75667376 -25.50280391 11.14364008 -33 10 C-32.33333333 8.66666667 -31.66666667 7.33333333 -31 6 C-28.75865478 5.74183458 -26.50422464 5.59353629 -24.25 5.5 C-18.45415761 5.25749613 -14.42453466 4.51533417 -9.5 1.4375 C-6.26793045 -0.42093999 -3.48053641 -1.7402682 0 0 Z " fill="#22193A" transform="translate(79,71)"/>
<path d="M0 0 C0.99 0.66 1.98 1.32 3 2 C5.32387947 2.39387788 7.65793749 2.73486085 10 3 C9 5 9 5 7.31347656 5.59423828 C6.23791504 5.82989502 6.23791504 5.82989502 5.140625 6.0703125 C4.35429688 6.24433594 3.56796875 6.41835937 2.7578125 6.59765625 C1.93023437 6.77167969 1.10265625 6.94570312 0.25 7.125 C-0.56210938 7.30675781 -1.37421875 7.48851563 -2.2109375 7.67578125 C-6.19641888 8.53908585 -9.89608595 9.25023866 -14 9 C-15 7 -15 7 -14.0625 3.875 C-13.5365625 2.451875 -13.5365625 2.451875 -13 1 C-12.67 1.66 -12.34 2.32 -12 3 C-10.18667846 2.69230293 -8.37435655 2.37870936 -6.5625 2.0625 C-5.55316406 1.88847656 -4.54382813 1.71445313 -3.50390625 1.53515625 C-1.0712562 1.25248903 -1.0712562 1.25248903 0 0 Z " fill="#6EBDDF" transform="translate(65,65)"/>
<path d="M0 0 C-2.91765 1.9451 -4.62537285 2.45276317 -8 3 C-7.67 6.3 -7.34 9.6 -7 13 C-2.71 12.34 1.58 11.68 6 11 C5.67 11.99 5.34 12.98 5 14 C0.18912503 15.54926482 -3.91996441 16.25400178 -9 16 C-10.33583899 11.15758367 -11.25328119 7.06562383 -11 2 C-7.36576791 -0.32590854 -4.22911669 -0.16265833 0 0 Z " fill="#8E4BC7" transform="translate(50,30)"/>
<path d="M0 0 C2.97 0 5.94 0 9 0 C8.67 0.99 8.34 1.98 8 3 C9.65 2.67 11.3 2.34 13 2 C12.67 3.32 12.34 4.64 12 6 C8.625 6.625 8.625 6.625 5 7 C4.34 6.34 3.68 5.68 3 5 C1.824375 5.5259375 1.824375 5.5259375 0.625 6.0625 C-0.674375 6.5265625 -0.674375 6.5265625 -2 7 C-2.66 6.67 -3.32 6.34 -4 6 C-4.33 6.99 -4.66 7.98 -5 9 C-5.33 8.01 -5.66 7.02 -6 6 C-5.67 5.34 -5.34 4.68 -5 4 C-3.68 4 -2.36 4 -1 4 C-0.67 2.68 -0.34 1.36 0 0 Z " fill="#617BAE" transform="translate(51,32)"/>
<path d="M0 0 C1.65 0 3.3 0 5 0 C5.99 2.97 6.98 5.94 8 9 C4.17679443 10.42258812 1.08718695 11.24042276 -3 11 C-3.33 9.68 -3.66 8.36 -4 7 C-2.35 7 -0.7 7 1 7 C1 4.37886292 0.68707555 2.49064888 0 0 Z " fill="#A1ABE4" transform="translate(52,46)"/>
<path d="M0 0 C1.32 0 2.64 0 4 0 C5.28317892 3.84953676 5.06643637 6.94738135 5 11 C0.56923077 13.09230769 0.56923077 13.09230769 -2.3125 12.625 C-2.869375 12.41875 -3.42625 12.2125 -4 12 C-4 11.34 -4 10.68 -4 10 C-2.35 10 -0.7 10 1 10 C0.67 9.01 0.34 8.02 0 7 C-0.99 7 -1.98 7 -3 7 C-3.33 5.68 -3.66 4.36 -4 3 C-2.68 2.34 -1.36 1.68 0 1 C0 0.67 0 0.34 0 0 Z " fill="#4F5C9B" transform="translate(62,28)"/>
<path d="M0 0 C0 0.66 0 1.32 0 2 C-3.96 2.66 -7.92 3.32 -12 4 C-12 8.62 -12 13.24 -12 18 C-12.66 18 -13.32 18 -14 18 C-15.56640979 13.20287002 -16.58956501 9.10956338 -16 4 C-11.79492046 -0.6723106 -5.85589147 -0.1148214 0 0 Z " fill="#A867DB" transform="translate(52,28)"/>
<path d="M0 0 C2.97851562 0.1953125 2.97851562 0.1953125 5.95703125 0.390625 C5.95703125 0.720625 5.95703125 1.050625 5.95703125 1.390625 C5.00828125 1.7 4.05953125 2.009375 3.08203125 2.328125 C0.09622717 3.26457242 0.09622717 3.26457242 -2.04296875 4.390625 C-2.52749338 11.33547803 -0.73584366 17.6896618 0.95703125 24.390625 C-0.03296875 24.390625 -1.02296875 24.390625 -2.04296875 24.390625 C-4.36784258 17.88651369 -6.28577751 11.3357328 -5.04296875 4.390625 C-2.91564136 0.55748401 -2.91564136 0.55748401 0 0 Z " fill="#2E1C49" transform="translate(39.04296875,27.609375)"/>
<path d="M0 0 C1.32 0.33 2.64 0.66 4 1 C4.25 6.625 4.25 6.625 2 10 C-1.63 9.67 -5.26 9.34 -9 9 C-6.8125 6.4375 -6.8125 6.4375 -4 4 C-1.1875 4.1875 -1.1875 4.1875 1 5 C0.67 3.35 0.34 1.7 0 0 Z " fill="#55CEDA" transform="translate(76,59)"/>
<path d="M0 0 C0.33 0.66 0.66 1.32 1 2 C-3.66710079 7.56940695 -13.13837413 8.3526768 -20 9 C-22.67306898 9.06635278 -25.32522736 9.04692584 -28 9 C-28 8.67 -28 8.34 -28 8 C-24.25149397 7.15984843 -20.50097168 6.32906781 -16.75 5.5 C-15.15478516 5.14228516 -15.15478516 5.14228516 -13.52734375 4.77734375 C-12.50253906 4.55175781 -11.47773437 4.32617188 -10.421875 4.09375 C-9.47924805 3.88427734 -8.53662109 3.67480469 -7.56542969 3.45898438 C-5 3 -5 3 -1 3 C-0.67 2.01 -0.34 1.02 0 0 Z " fill="#30486B" transform="translate(79,66)"/>
<path d="M0 0 C-4.15037034 1.43979665 -8.28509818 2.62508789 -12.5625 3.625 C-13.65691406 3.88539062 -14.75132813 4.14578125 -15.87890625 4.4140625 C-18.68432323 4.94073653 -21.15762109 5.11644755 -24 5 C-24 4.01 -24 3.02 -24 2 C-22.97519531 1.86722656 -21.95039062 1.73445313 -20.89453125 1.59765625 C-19.5338426 1.41935912 -18.17316615 1.24096877 -16.8125 1.0625 C-16.13896484 0.97548828 -15.46542969 0.88847656 -14.77148438 0.79882812 C-11.87580926 0.41744653 -9.01607055 0.00335539 -6.15625 -0.59375 C-3.77072277 -1.04319716 -2.28278546 -0.76092849 0 0 Z " fill="#57A9D0" transform="translate(75,69)"/>
<path d="M0 0 C0.66 0.33 1.32 0.66 2 1 C2 1.66 2 2.32 2 3 C3.65 3 5.3 3 7 3 C2.25294723 6.16470185 -1.31771295 6.10927475 -7 6 C-7 4.68 -7 3.36 -7 2 C-5.824375 1.7834375 -5.824375 1.7834375 -4.625 1.5625 C-2.03578982 1.12201075 -2.03578982 1.12201075 0 0 Z " fill="#4F4793" transform="translate(54,36)"/>
<path d="M0 0 C0.80859375 1.671875 0.80859375 1.671875 1 4 C-1.08984375 6.578125 -1.08984375 6.578125 -3.9375 9.25 C-4.87464844 10.14203125 -5.81179688 11.0340625 -6.77734375 11.953125 C-7.51082031 12.62859375 -8.24429687 13.3040625 -9 14 C-9.80859375 12.328125 -9.80859375 12.328125 -10 10 C-7.91015625 7.421875 -7.91015625 7.421875 -5.0625 4.75 C-4.12535156 3.85796875 -3.18820313 2.9659375 -2.22265625 2.046875 C-1.48917969 1.37140625 -0.75570313 0.6959375 0 0 Z " fill="#0B7CE4" transform="translate(20,67)"/>
<path d="M0 0 C0 0.99 0 1.98 0 3 C-0.78375 2.95875 -1.5675 2.9175 -2.375 2.875 C-5.16116119 2.71271266 -5.16116119 2.71271266 -7 5 C-9.0625 4.8125 -9.0625 4.8125 -11 4 C-11.33 3.01 -11.66 2.02 -12 1 C-7.58774263 -0.47075246 -4.51718381 -1.36884358 0 0 Z " fill="#93B8E1" transform="translate(62,58)"/>
<path d="M0 0 C0.55171875 0.26683594 1.1034375 0.53367188 1.671875 0.80859375 C0.1043232 2.51076355 -1.48272284 4.19499929 -3.078125 5.87109375 C-3.95984375 6.81082031 -4.8415625 7.75054688 -5.75 8.71875 C-8.328125 10.80859375 -8.328125 10.80859375 -10.65625 10.6171875 C-11.20796875 10.35035156 -11.7596875 10.08351563 -12.328125 9.80859375 C-10.7605732 8.10642395 -9.17352716 6.42218821 -7.578125 4.74609375 C-6.69640625 3.80636719 -5.8146875 2.86664062 -4.90625 1.8984375 C-2.328125 -0.19140625 -2.328125 -0.19140625 0 0 Z " fill="#0B7CE4" transform="translate(86.328125,3.19140625)"/>
<path d="M0 0 C2.29633824 3.44450737 2.54016485 5.93812283 3 10 C1.02 10.33 -0.96 10.66 -3 11 C-3.66 9.68 -4.32 8.36 -5 7 C-4.34 6.34 -3.68 5.68 -3 5 C-2.01 5 -1.02 5 0 5 C0 3.35 0 1.7 0 0 Z " fill="#92A5E2" transform="translate(69,37)"/>
<path d="M0 0 C4.01969095 4.01969095 5.8653379 10.04739956 6.25 15.625 C6.1675 16.40875 6.085 17.1925 6 18 C2.89948898 15.93299265 2.25564175 15.34069822 1 12 C0.71519194 9.9257375 0.51125776 7.83928561 0.375 5.75 C0.30023438 4.67234375 0.22546875 3.5946875 0.1484375 2.484375 C0.09945312 1.66453125 0.05046875 0.8446875 0 0 Z " fill="#25234A" transform="translate(40,52)"/>
<path d="M0 0 C2.8125 -0.3125 2.8125 -0.3125 6 0 C7.875 2.5 7.875 2.5 9 5 C8.34 5.66 7.68 6.32 7 7 C4.69 6.01 2.38 5.02 0 4 C0 2.68 0 1.36 0 0 Z " fill="#9785DF" transform="translate(46,47)"/>
<path d="M0 0 C2 3 2 3 2.0625 5 C0.64248376 7.67297174 -1.24938707 8.4146203 -4.01171875 9.47265625 C-7.03212364 10.27374596 -9.90235543 10.18965171 -13 10 C-13 9.34 -13 8.68 -13 8 C-7.555 7.01 -7.555 7.01 -2 6 C-2 5.01 -2 4.02 -2 3 C-1.34 3 -0.68 3 0 3 C0 2.01 0 1.02 0 0 Z " fill="#6E70CA" transform="translate(69,33)"/>
<path d="M0 0 C2.22825644 2.22825644 2.69239369 3.65761628 3.625 6.625 C3.88539062 7.44226562 4.14578125 8.25953125 4.4140625 9.1015625 C4.60742188 9.72804688 4.80078125 10.35453125 5 11 C3.68 11 2.36 11 1 11 C1 10.01 1 9.02 1 8 C-0.32 7.67 -1.64 7.34 -3 7 C-2.01 6.34 -1.02 5.68 0 5 C0.25030977 2.41619823 0.25030977 2.41619823 0 0 Z " fill="#81ADD7" transform="translate(71,41)"/>
<path d="M0 0 C0 0.66 0 1.32 0 2 C-0.61875 2.28875 -1.2375 2.5775 -1.875 2.875 C-4.13325765 3.93720042 -4.13325765 3.93720042 -6 6 C-6 5.34 -6 4.68 -6 4 C-11.28 4.66 -16.56 5.32 -22 6 C-18.61858334 3.74572223 -16.55489965 3.50754683 -12.5625 3 C-8.31607362 2.45893088 -4.01532079 0 0 0 Z " fill="#7C78DA" transform="translate(69,40)"/>
<path d="M0 0 C4.75 0.75 4.75 0.75 7 3 C7.26991906 5.68839385 7.08737357 8.29141936 7 11 C6.34 11 5.68 11 5 11 C4.89042969 10.43410156 4.78085938 9.86820313 4.66796875 9.28515625 C4.50941406 8.55167969 4.35085937 7.81820312 4.1875 7.0625 C4.03667969 6.33160156 3.88585937 5.60070312 3.73046875 4.84765625 C3.48941406 4.23792969 3.24835938 3.62820312 3 3 C2.01 2.67 1.02 2.34 0 2 C0 1.34 0 0.68 0 0 Z " fill="#987ED8" transform="translate(62,25)"/>
<path d="M0 0 C-0.71027344 0.34933594 -1.42054687 0.69867188 -2.15234375 1.05859375 C-3.07144531 1.51363281 -3.99054688 1.96867187 -4.9375 2.4375 C-5.85402344 2.88996094 -6.77054688 3.34242187 -7.71484375 3.80859375 C-9.90528904 4.80525394 -9.90528904 4.80525394 -11 6 C-12.99958364 6.04080783 -15.00045254 6.04254356 -17 6 C-16.401875 5.731875 -15.80375 5.46375 -15.1875 5.1875 C-12.97957124 4.16343011 -12.97957124 4.16343011 -11.75 2.5 C-8.71467199 -0.10170972 -3.69111758 -1.84555879 0 0 Z " fill="#222244" transform="translate(79,71)"/>
<path d="M0 0 C4.03809068 4.61496078 6 9.92852877 6 16 C5.34 16 4.68 16 4 16 C3.5186659 14.27143541 3.04003029 12.54211929 2.5625 10.8125 C2.29566406 9.84957031 2.02882812 8.88664062 1.75390625 7.89453125 C1.07119982 5.27336303 0.50107805 2.661065 0 0 Z " fill="#8DB1E4" transform="translate(45,56)"/>
<path d="M0 0 C2.97851562 0.1953125 2.97851562 0.1953125 5.95703125 0.390625 C5.95703125 0.720625 5.95703125 1.050625 5.95703125 1.390625 C5.02890625 1.679375 4.10078125 1.968125 3.14453125 2.265625 C-0.14088542 3.278125 -0.14088542 3.278125 -3.04296875 5.390625 C-3.62290574 7.58517181 -3.62290574 7.58517181 -3.73046875 10.015625 C-3.79621094 10.83289062 -3.86195312 11.65015625 -3.9296875 12.4921875 C-3.96707031 13.11867188 -4.00445312 13.74515625 -4.04296875 14.390625 C-4.37296875 14.390625 -4.70296875 14.390625 -5.04296875 14.390625 C-5.12450808 12.80815793 -5.18240432 11.22446227 -5.23046875 9.640625 C-5.26527344 8.75890625 -5.30007812 7.8771875 -5.3359375 6.96875 C-4.92120071 3.31906622 -3.82195739 0.73077579 0 0 Z " fill="#24163B" transform="translate(39.04296875,27.609375)"/>
<path d="M0 0 C0.99 0.99 1.98 1.98 3 3 C2.030625 3.268125 1.06125 3.53625 0.0625 3.8125 C-0.948125 4.204375 -1.95875 4.59625 -3 5 C-3.33 5.99 -3.66 6.98 -4 8 C-4.66 8 -5.32 8 -6 8 C-6.33 6.02 -6.66 4.04 -7 2 C-5 2 -3 2 -1 2 C-0.67 1.34 -0.34 0.68 0 0 Z " fill="#71A3DA" transform="translate(56,60)"/>
<path d="M0 0 C3.02788635 3.46044155 4.98556464 7.52249221 6 12 C5.578125 14.25 5.578125 14.25 5 16 C4.15488176 14.27656245 3.32436646 12.54595947 2.5 10.8125 C2.0359375 9.84957031 1.571875 8.88664062 1.09375 7.89453125 C0.00407079 5.01077307 -0.22277524 3.04645139 0 0 Z " fill="#7D88D4" transform="translate(42,52)"/>
<path d="M0 0 C0.99 0.66 1.98 1.32 3 2 C-1.87793583 5.25195722 -6.22391379 5.11325659 -12 5 C-9.38509595 3.58359364 -6.68295015 2.38761747 -3.9375 1.25 C-3.26589844 0.96640625 -2.59429687 0.6828125 -1.90234375 0.390625 C-1.27457031 0.26171875 -0.64679688 0.1328125 0 0 Z " fill="#5CB9D9" transform="translate(65,65)"/>
<path d="M0 0 C1.32 0 2.64 0 4 0 C4.33 1.65 4.66 3.3 5 5 C3.35 5 1.7 5 0 5 C-0.5625 3.0625 -0.5625 3.0625 -1 1 C-0.67 0.67 -0.34 0.34 0 0 Z " fill="#A3A5E4" transform="translate(59,44)"/>
<path d="M0 0 C-0.33 0.99 -0.66 1.98 -1 3 C-5.81087497 4.54926482 -9.91996441 5.25400178 -15 5 C-15 4.67 -15 4.34 -15 4 C-13.96875 3.71125 -12.9375 3.4225 -11.875 3.125 C-9.44764391 2.43568995 -7.07998847 1.68754326 -4.6875 0.875 C-2 0 -2 0 0 0 Z " fill="#7658CC" transform="translate(56,41)"/>
<path d="M0 0 C1.32 0 2.64 0 4 0 C4.33 1.32 4.66 2.64 5 4 C3.35 4.33 1.7 4.66 0 5 C-0.5625 3.0625 -0.5625 3.0625 -1 1 C-0.67 0.67 -0.34 0.34 0 0 Z " fill="#8FDAE7" transform="translate(66,61)"/>
<path d="M0 0 C1.65 0 3.3 0 5 0 C5.33 1.32 5.66 2.64 6 4 C5.34 4 4.68 4 4 4 C3.67 4.66 3.34 5.32 3 6 C1.5 4.6875 1.5 4.6875 0 3 C0 2.01 0 1.02 0 0 Z " fill="#A099E2" transform="translate(52,46)"/>
<path d="M0 0 C0.33 0.99 0.66 1.98 1 3 C3.01508358 3.73323796 3.01508358 3.73323796 5 4 C4.01 4.66 3.02 5.32 2 6 C1.74969023 8.58380177 1.74969023 8.58380177 2 11 C-0.15377564 8.37801226 -1.40072174 6.35595828 -2 3 C-1.34 3 -0.68 3 0 3 C0 2.01 0 1.02 0 0 Z " fill="#926BD7" transform="translate(40,43)"/>
<path d="M0 0 C0.99 0 1.98 0 3 0 C1.25 4.875 1.25 4.875 -1 6 C-1.66 5.67 -2.32 5.34 -3 5 C-3.33 5.99 -3.66 6.98 -4 8 C-4.33 7.01 -4.66 6.02 -5 5 C-4.67 4.34 -4.34 3.68 -4 3 C-2.68 3 -1.36 3 0 3 C0 2.01 0 1.02 0 0 Z " fill="#90BCE1" transform="translate(50,33)"/>
<path d="M0 0 C1.67542976 0.28604898 3.34385343 0.61781233 5 1 C4.67 2.32 4.34 3.64 4 5 C2.0625 4.6875 2.0625 4.6875 0 4 C-0.33 3.01 -0.66 2.02 -1 1 C-0.67 0.67 -0.34 0.34 0 0 Z " fill="#97B6E2" transform="translate(61,50)"/>
<path d="M0 0 C1.32 0 2.64 0 4 0 C4.33 2.31 4.66 4.62 5 7 C4.34 6.34 3.68 5.68 3 5 C1.68 5 0.36 5 -1 5 C-0.67 3.35 -0.34 1.7 0 0 Z " fill="#636FAD" transform="translate(62,28)"/>
<path d="M0 0 C-0.33 0.99 -0.66 1.98 -1 3 C-3.31 3.33 -5.62 3.66 -8 4 C-7.67 2.68 -7.34 1.36 -7 0 C-2.25 -1.125 -2.25 -1.125 0 0 Z " fill="#6798BC" transform="translate(64,35)"/>
<path d="M0 0 C1.485 0.99 1.485 0.99 3 2 C3 2.66 3 3.32 3 4 C4.65 4 6.3 4 8 4 C6 6 6 6 3.375 6.125 C2.59125 6.08375 1.8075 6.0425 1 6 C0.67 4.02 0.34 2.04 0 0 Z " fill="#7B4BC8" transform="translate(40,39)"/>
<path d="M0 0 C0.66 1.32 1.32 2.64 2 4 C1.21625 3.938125 0.4325 3.87625 -0.375 3.8125 C-1.674375 3.9053125 -1.674375 3.9053125 -3 4 C-3.99 5.485 -3.99 5.485 -5 7 C-5.66 5.68 -6.32 4.36 -7 3 C-4.69 2.01 -2.38 1.02 0 0 Z " fill="#62BAD9" transform="translate(69,58)"/>
<path d="M0 0 C1.65 0 3.3 0 5 0 C5 1.32 5 2.64 5 4 C3.35 3.67 1.7 3.34 0 3 C0 2.01 0 1.02 0 0 Z " fill="#8EBDE2" transform="translate(67,49)"/>
<path d="M0 0 C1.22589844 0.01353516 1.22589844 0.01353516 2.4765625 0.02734375 C3.41628906 0.04474609 3.41628906 0.04474609 4.375 0.0625 C0.73883344 2.0414756 -2.50925629 2.5876065 -6.625 3.0625 C-6.625 2.4025 -6.625 1.7425 -6.625 1.0625 C-4.21954362 -0.14022819 -2.67503047 -0.03821472 0 0 Z " fill="#564795" transform="translate(60.625,28.9375)"/>
<path d="M0 0 C1.65 0 3.3 0 5 0 C5 1.32 5 2.64 5 4 C3.35 3.67 1.7 3.34 0 3 C0 2.01 0 1.02 0 0 Z " fill="#8EC8E3" transform="translate(63,56)"/>
<path d="M0 0 C0.66 0 1.32 0 2 0 C2.33 2.31 2.66 4.62 3 7 C2.01 7 1.02 7 0 7 C0 4.69 0 2.38 0 0 Z " fill="#BE80E5" transform="translate(36,32)"/>
<path d="M0 0 C2.01136276 2.55991624 3.62845496 5.04590299 5 8 C2.525 7.01 2.525 7.01 0 6 C0 4.02 0 2.04 0 0 Z " fill="#353F66" transform="translate(46,66)"/>
<path d="M0 0 C1.32 0 2.64 0 4 0 C4 0.66 4 1.32 4 2 C3.01 2.33 2.02 2.66 1 3 C0.67 3.99 0.34 4.98 0 6 C-1.32 5.67 -2.64 5.34 -4 5 C-3.01 5 -2.02 5 -1 5 C-0.67 3.35 -0.34 1.7 0 0 Z " fill="#624EA0" transform="translate(50,30)"/>
</svg>
